<svg aria-hidden="true" style="width:0;height:0;position:absolute;overflow:hidden" xmlns="http://www.w3.org/2000/svg"><defs><symbol id="icon-angles-up-solid" viewBox="0 0 28 32"><path d="M15.412 2.587a2.003 2.003 0 0 0-2.831 0l-10 10c-.781.781-.781 2.05 0 2.831s2.05.781 2.831 0l8.587-8.588 8.587 8.581c.781.781 2.05.781 2.831 0s.781-2.05 0-2.831l-10-10zm10.001 22-10-10a2.003 2.003 0 0 0-2.831 0l-10 10c-.781.781-.781 2.05 0 2.831s2.05.781 2.831 0L14 18.83l8.587 8.581c.781.781 2.05.781 2.831 0s.781-2.05 0-2.831z"/></symbol><symbol id="icon-logo-day-desk" viewBox="0 0 173 32"><path fill="#050505" style="fill:var(--primary-text-color-light-theme)" d="M88.275 5.989v3.369H77.651V5.989h10.624zm-8.002-4.427h4.356v17.35c0 .586.088 1.035.265 1.348.184.305.425.513.722.626s.626.168.987.168c.273 0 .521-.02.746-.06.232-.04.409-.076.529-.108l.734 3.405c-.232.08-.565.168-.999.265-.425.096-.946.152-1.564.168-1.091.032-2.073-.132-2.948-.493a4.593 4.593 0 0 1-2.082-1.709c-.505-.77-.754-1.733-.746-2.888V1.562zm10.289 22.909V5.99h4.223v3.08h.192c.337-1.067.914-1.889 1.733-2.467.826-.586 1.769-.878 2.827-.878.241 0 .509.012.806.036.305.016.557.044.758.084v4.007c-.184-.064-.477-.12-.878-.168A8.102 8.102 0 0 0 99.08 9.6c-.794 0-1.508.172-2.142.517-.626.337-1.119.806-1.48 1.408s-.541 1.295-.541 2.082v10.865h-4.356zm19.5.361c-1.853 0-3.453-.385-4.801-1.155-1.339-.778-2.37-1.877-3.092-3.297-.722-1.428-1.083-3.108-1.083-5.041 0-1.901.361-3.57 1.083-5.005.73-1.444 1.749-2.567 3.056-3.369 1.307-.81 2.843-1.215 4.608-1.215 1.139 0 2.214.184 3.225.553a7.284 7.284 0 0 1 2.695 1.684c.786.762 1.404 1.733 1.853 2.912.449 1.171.674 2.567.674 4.187v1.336h-15.148v-2.936h10.973c-.008-.834-.189-1.576-.542-2.226a3.933 3.933 0 0 0-1.48-1.552c-.626-.377-1.355-.566-2.19-.566-.89 0-1.672.217-2.346.65a4.479 4.479 0 0 0-1.576 1.684 4.848 4.848 0 0 0-.566 2.274v2.563c0 1.075.197 1.997.59 2.767a4.207 4.207 0 0 0 1.649 1.757c.706.401 1.532.602 2.478.602a5.26 5.26 0 0 0 1.721-.265c.513-.184.959-.453 1.336-.806s.662-.79.854-1.311l4.067.457a6.34 6.34 0 0 1-1.468 2.815c-.714.794-1.628 1.412-2.743 1.853-1.115.433-2.39.65-3.826.65zm15.865.012c-1.171 0-2.226-.209-3.164-.626a5.16 5.16 0 0 1-2.214-1.877c-.537-.826-.806-1.845-.806-3.056 0-1.043.192-1.905.578-2.587s.91-1.227 1.576-1.636 1.416-.718 2.25-.926a18.208 18.208 0 0 1 2.611-.469c1.083-.112 1.961-.213 2.635-.301.674-.096 1.163-.241 1.468-.433.313-.201.469-.509.469-.926v-.072c0-.906-.269-1.608-.806-2.106s-1.311-.746-2.322-.746c-1.067 0-1.913.233-2.539.698-.618.465-1.035 1.015-1.251 1.648l-4.067-.578c.321-1.123.85-2.062 1.588-2.816.738-.762 1.64-1.332 2.707-1.709 1.067-.385 2.246-.578 3.538-.578.89 0 1.777.104 2.659.313s1.688.553 2.418 1.035c.73.473 1.316 1.119 1.757 1.937.449.818.674 1.841.674 3.068V24.47h-4.187v-2.539h-.144a5.332 5.332 0 0 1-1.119 1.444c-.473.441-1.071.798-1.793 1.071-.714.265-1.552.397-2.515.397zm1.131-3.201c.874 0 1.632-.173 2.274-.517.642-.353 1.135-.818 1.48-1.396.353-.578.53-1.207.53-1.889v-2.178c-.136.112-.369.217-.698.313-.321.096-.682.18-1.083.253s-.798.136-1.191.192l-1.023.144c-.65.088-1.231.233-1.745.433s-.918.481-1.215.842c-.297.353-.445.81-.445 1.372 0 .802.293 1.408.878 1.817s1.332.614 2.238.614zm20.88-15.654v3.369h-10.624V5.989h10.624zm-8.001-4.427h4.356v17.35c0 .586.088 1.035.265 1.348.184.305.425.513.722.626s.626.168.987.168c.273 0 .521-.02.746-.06.233-.04.409-.076.53-.108l.734 3.405a9.94 9.94 0 0 1-.999.265c-.425.096-.947.152-1.564.168-1.091.032-2.074-.132-2.948-.493a4.593 4.593 0 0 1-2.082-1.709c-.505-.77-.754-1.733-.746-2.888V1.562zm24.631 9.312-3.97.433a3.184 3.184 0 0 0-.59-1.131c-.273-.353-.642-.638-1.107-.854s-1.035-.325-1.709-.325c-.906 0-1.668.197-2.286.59-.609.393-.91.902-.902 1.528-.008.537.189.975.59 1.312.409.337 1.083.614 2.021.83l3.152.674c1.749.377 3.048.975 3.898 1.793.858.818 1.291 1.889 1.3 3.213-.008 1.163-.349 2.19-1.023 3.08-.666.882-1.592 1.572-2.779 2.07s-2.551.746-4.091.746c-2.262 0-4.083-.473-5.463-1.42-1.38-.955-2.202-2.282-2.467-3.983l4.247-.409c.193.834.602 1.464 1.227 1.889s1.44.638 2.443.638c1.035 0 1.865-.213 2.491-.638.634-.425.95-.951.95-1.576 0-.529-.204-.967-.614-1.311-.401-.345-1.027-.61-1.877-.794l-3.152-.662c-1.773-.369-3.084-.991-3.935-1.865-.85-.882-1.272-1.997-1.263-3.345-.008-1.139.301-2.126.927-2.96.634-.842 1.512-1.492 2.635-1.949 1.131-.465 2.435-.698 3.911-.698 2.166 0 3.87.461 5.114 1.384 1.251.922 2.025 2.17 2.322 3.742zm5.316 13.861c-.73 0-1.355-.257-1.877-.77s-.778-1.139-.77-1.877c-.008-.722.249-1.34.77-1.853s1.147-.77 1.877-.77c.706 0 1.32.257 1.841.77.53.513.798 1.131.806 1.853a2.568 2.568 0 0 1-.385 1.336 2.772 2.772 0 0 1-.962.963 2.51 2.51 0 0 1-1.3.349z"/><path fill="#9bb537" style="fill:var(--color1,#9bb537)" d="M11.735 5.989v3.369H1.111V5.989h10.624zM3.734 1.562H8.09v17.35c0 .586.088 1.035.265 1.348.184.305.425.513.722.626s.626.168.987.168c.273 0 .521-.02.746-.06.233-.04.409-.076.529-.108l.734 3.405c-.233.08-.566.168-.999.265-.425.096-.947.152-1.564.168-1.091.032-2.074-.132-2.948-.493a4.593 4.593 0 0 1-2.082-1.709c-.505-.77-.754-1.733-.746-2.888V1.562zm15.607 23.282c-1.171 0-2.226-.209-3.164-.626a5.17 5.17 0 0 1-2.214-1.877c-.537-.826-.806-1.845-.806-3.056 0-1.043.193-1.905.578-2.587s.91-1.227 1.576-1.636a7.941 7.941 0 0 1 2.25-.926 18.208 18.208 0 0 1 2.611-.469c1.083-.112 1.961-.213 2.635-.301.674-.096 1.163-.241 1.468-.433.313-.201.469-.509.469-.926v-.072c0-.906-.269-1.608-.806-2.106s-1.312-.746-2.322-.746c-1.067 0-1.913.233-2.539.698-.618.465-1.035 1.015-1.251 1.648l-4.067-.578c.321-1.123.85-2.062 1.588-2.816.738-.762 1.64-1.332 2.707-1.709 1.067-.385 2.246-.578 3.537-.578.89 0 1.777.104 2.659.313s1.688.553 2.418 1.035c.73.473 1.315 1.119 1.757 1.937.449.818.674 1.841.674 3.068V24.47h-4.187v-2.539h-.144a5.332 5.332 0 0 1-1.119 1.444c-.473.441-1.071.798-1.793 1.071-.714.265-1.552.397-2.515.397zm1.131-3.201c.874 0 1.632-.173 2.274-.517.642-.353 1.135-.818 1.48-1.396a3.555 3.555 0 0 0 .529-1.889v-2.178c-.136.112-.369.217-.698.313-.321.096-.682.18-1.083.253s-.798.136-1.191.192l-1.023.144c-.65.088-1.231.233-1.745.433s-.918.481-1.215.842c-.297.353-.445.81-.445 1.372 0 .802.293 1.408.878 1.817s1.331.614 2.238.614zM46.73 10.874l-3.971.433a3.184 3.184 0 0 0-.59-1.131c-.273-.353-.642-.638-1.107-.854s-1.035-.325-1.709-.325c-.907 0-1.669.197-2.286.59-.61.393-.91.902-.902 1.528-.008.537.188.975.59 1.312.409.337 1.083.614 2.021.83l3.152.674c1.749.377 3.048.975 3.898 1.793.858.818 1.291 1.889 1.299 3.213-.008 1.163-.349 2.19-1.023 3.08-.666.882-1.592 1.572-2.779 2.07s-2.551.746-4.091.746c-2.262 0-4.083-.473-5.463-1.42-1.38-.955-2.202-2.282-2.467-3.983l4.247-.409c.193.834.602 1.464 1.227 1.889s1.44.638 2.443.638c1.035 0 1.865-.213 2.491-.638.634-.425.951-.951.951-1.576a1.64 1.64 0 0 0-.614-1.311c-.401-.345-1.027-.61-1.877-.794l-3.152-.662c-1.773-.369-3.084-.991-3.934-1.865-.85-.882-1.271-1.997-1.263-3.345-.008-1.139.301-2.126.926-2.96.634-.842 1.512-1.492 2.635-1.949 1.131-.465 2.434-.698 3.91-.698 2.166 0 3.87.461 5.114 1.384 1.251.922 2.025 2.17 2.322 3.742zm11.862-4.885v3.369H47.968V5.989h10.624zm-8.001-4.427h4.356v17.35c0 .586.088 1.035.265 1.348.184.305.425.513.722.626s.626.168.987.168c.273 0 .521-.02.746-.06.233-.04.409-.076.529-.108l.734 3.405c-.232.08-.565.168-.999.265-.425.096-.946.152-1.564.168-1.091.032-2.073-.132-2.948-.493a4.585 4.585 0 0 1-2.081-1.709c-.505-.77-.754-1.733-.746-2.888V1.562zm12.996 29.839a8.831 8.831 0 0 1-1.648-.144c-.497-.088-.895-.193-1.191-.313l1.011-3.393c.634.184 1.199.273 1.697.265s.934-.165 1.311-.469c.385-.297.71-.794.975-1.492l.373-.999L59.413 5.99h4.62l4.259 13.957h.192L72.755 5.99h4.632l-7.4 20.719c-.345.979-.802 1.817-1.372 2.515a5.564 5.564 0 0 1-2.094 1.612c-.818.377-1.797.565-2.936.565z"/></symbol><symbol id="icon-logo-day-mob" viewBox="0 0 175 32"><path fill="#9bb537" style="fill:var(--color1,#9bb537)" d="M12.178 4.848v3.394H1.475V4.848h10.703zM4.117.388h4.388v17.479c0 .59.089 1.042.267 1.358.186.307.428.517.727.63s.63.17.994.17c.275 0 .525-.02.752-.061.234-.04.412-.077.533-.109l.739 3.43c-.234.081-.57.17-1.006.267-.428.097-.954.153-1.576.17-1.099.032-2.089-.133-2.97-.497a4.618 4.618 0 0 1-2.097-1.721c-.509-.776-.76-1.745-.752-2.909V.389zm15.722 23.454c-1.18 0-2.242-.21-3.188-.63a5.201 5.201 0 0 1-2.23-1.891c-.541-.832-.812-1.859-.812-3.079 0-1.051.194-1.919.582-2.606s.917-1.236 1.588-1.649a8.008 8.008 0 0 1 2.267-.933 18.448 18.448 0 0 1 2.63-.473c1.091-.113 1.976-.214 2.655-.303.679-.097 1.172-.242 1.479-.436.315-.202.473-.513.473-.933v-.073c0-.913-.271-1.62-.812-2.121s-1.321-.752-2.339-.752c-1.075 0-1.927.234-2.558.703-.622.469-1.042 1.022-1.261 1.661l-4.097-.582c.323-1.131.857-2.077 1.6-2.836.743-.768 1.653-1.341 2.727-1.721 1.075-.388 2.263-.582 3.564-.582.897 0 1.79.105 2.679.315s1.701.558 2.436 1.042c.735.477 1.325 1.127 1.77 1.952.452.824.679 1.855.679 3.091v12.461h-4.218v-2.558h-.145a5.371 5.371 0 0 1-1.127 1.455c-.477.444-1.079.804-1.806 1.079-.719.267-1.564.4-2.533.4zm1.14-3.224c.881 0 1.645-.174 2.291-.521.646-.356 1.143-.824 1.491-1.406a3.586 3.586 0 0 0 .533-1.903v-2.194c-.137.113-.372.218-.703.315-.323.097-.687.182-1.091.255s-.804.137-1.2.194c-.396.057-.739.105-1.03.145-.655.089-1.24.234-1.758.436s-.925.485-1.224.849c-.299.356-.448.816-.448 1.382 0 .808.295 1.418.885 1.83s1.341.618 2.255.618zM47.432 9.77l-4 .436a3.204 3.204 0 0 0-.594-1.139c-.275-.356-.646-.642-1.115-.861s-1.043-.327-1.721-.327c-.913 0-1.681.198-2.303.594-.614.396-.917.909-.909 1.539-.008.541.19.982.594 1.321.412.339 1.091.618 2.036.836l3.176.679c1.761.38 3.071.982 3.927 1.806.865.824 1.301 1.903 1.309 3.236-.008 1.172-.352 2.206-1.03 3.103-.671.889-1.604 1.584-2.8 2.085s-2.57.752-4.121.752c-2.279 0-4.113-.477-5.503-1.43-1.39-.962-2.218-2.299-2.485-4.012l4.279-.412c.194.84.606 1.475 1.236 1.903s1.451.642 2.461.642c1.042 0 1.879-.214 2.509-.642.638-.428.958-.958.958-1.588 0-.533-.206-.974-.618-1.321-.404-.347-1.034-.614-1.891-.8l-3.176-.667c-1.786-.372-3.107-.998-3.964-1.879-.857-.889-1.281-2.012-1.273-3.37-.008-1.147.303-2.141.933-2.982.639-.848 1.523-1.503 2.655-1.964 1.139-.469 2.452-.703 3.939-.703 2.182 0 3.899.465 5.152 1.394 1.261.929 2.041 2.186 2.339 3.77zm11.95-4.922v3.394H48.679V4.848h10.703zM51.321.388h4.388v17.479c0 .59.089 1.042.267 1.358.186.307.428.517.727.63s.63.17.994.17c.275 0 .525-.02.752-.061.234-.04.412-.077.533-.109l.739 3.43c-.234.081-.57.17-1.006.267-.428.097-.954.153-1.576.17-1.099.032-2.089-.133-2.97-.497a4.618 4.618 0 0 1-2.097-1.721c-.509-.776-.759-1.745-.751-2.909V.389zm13.092 30.06a8.886 8.886 0 0 1-1.661-.145c-.501-.089-.901-.194-1.2-.315l1.018-3.418c.639.186 1.208.275 1.709.267s.941-.166 1.321-.473c.388-.299.715-.8.982-1.503l.376-1.006-6.751-19.006h4.655l4.291 14.061h.194L73.65 4.849h4.667l-7.454 20.873c-.348.986-.808 1.83-1.382 2.533a5.624 5.624 0 0 1-2.109 1.624c-.824.38-1.81.57-2.957.57z"/><path fill="#050505" style="fill:var(--primary-text-color-light-theme)" d="M89.284 4.848v3.394H78.581V4.848h10.703zm-8.06-4.46h4.388v17.479c0 .59.089 1.042.267 1.358.186.307.428.517.727.63s.63.17.994.17c.275 0 .525-.02.752-.061.234-.04.412-.077.533-.109l.739 3.43c-.234.081-.57.17-1.006.267-.428.097-.954.153-1.576.17-1.099.032-2.089-.133-2.97-.497a4.618 4.618 0 0 1-2.097-1.721c-.509-.776-.759-1.745-.751-2.909V.389zm10.364 23.079V4.849h4.255v3.103h.194c.339-1.075.921-1.903 1.745-2.485.832-.59 1.782-.885 2.849-.885.242 0 .513.012.812.036.307.016.562.044.764.085v4.036c-.186-.065-.481-.121-.885-.17a8.08 8.08 0 0 0-1.151-.085c-.8 0-1.519.174-2.158.521-.63.339-1.127.812-1.491 1.418s-.546 1.305-.546 2.097v10.945h-4.388zm19.644.363c-1.867 0-3.479-.388-4.836-1.164-1.35-.784-2.388-1.891-3.115-3.321-.727-1.438-1.091-3.131-1.091-5.079 0-1.915.364-3.596 1.091-5.042.735-1.455 1.761-2.586 3.079-3.394 1.317-.816 2.865-1.224 4.642-1.224 1.148 0 2.23.186 3.248.558a7.345 7.345 0 0 1 2.715 1.697c.792.768 1.414 1.745 1.867 2.933.453 1.18.679 2.586.679 4.218v1.345H104.25v-2.958h11.055c-.008-.84-.19-1.588-.545-2.242a3.972 3.972 0 0 0-1.491-1.564c-.63-.38-1.366-.57-2.206-.57-.897 0-1.685.218-2.364.655a4.509 4.509 0 0 0-1.588 1.697 4.893 4.893 0 0 0-.57 2.291v2.582c0 1.083.198 2.012.594 2.788.396.768.95 1.358 1.661 1.77.711.404 1.543.606 2.497.606.638 0 1.216-.089 1.733-.267.517-.186.966-.457 1.345-.812s.667-.796.861-1.321l4.097.461a6.392 6.392 0 0 1-1.479 2.836c-.719.8-1.64 1.422-2.764 1.867-1.123.436-2.408.655-3.855.655zm15.983.012c-1.18 0-2.242-.21-3.188-.63a5.201 5.201 0 0 1-2.23-1.891c-.541-.832-.812-1.859-.812-3.079 0-1.051.194-1.919.582-2.606s.917-1.236 1.588-1.649a8.008 8.008 0 0 1 2.267-.933 18.474 18.474 0 0 1 2.63-.473c1.091-.113 1.976-.214 2.655-.303.679-.097 1.172-.242 1.479-.436.315-.202.473-.513.473-.933v-.073c0-.913-.271-1.62-.812-2.121s-1.321-.752-2.339-.752c-1.075 0-1.927.234-2.558.703-.622.469-1.042 1.022-1.261 1.661l-4.097-.582c.323-1.131.857-2.077 1.6-2.836.743-.768 1.652-1.341 2.727-1.721 1.075-.388 2.263-.582 3.564-.582.897 0 1.79.105 2.679.315s1.701.558 2.436 1.042c.735.477 1.325 1.127 1.77 1.952.452.824.679 1.855.679 3.091v12.461h-4.218v-2.558h-.145a5.371 5.371 0 0 1-1.127 1.455c-.477.444-1.079.804-1.806 1.079-.719.267-1.564.4-2.533.4zm1.14-3.224c.881 0 1.645-.174 2.291-.521.646-.356 1.143-.824 1.491-1.406a3.586 3.586 0 0 0 .533-1.903v-2.194c-.137.113-.372.218-.703.315-.323.097-.687.182-1.091.255s-.804.137-1.2.194c-.396.057-.739.105-1.03.145-.654.089-1.24.234-1.758.436s-.925.485-1.224.849c-.299.356-.449.816-.449 1.382 0 .808.295 1.418.885 1.83s1.341.618 2.255.618zm21.034-15.77v3.394h-10.703V4.848h10.703zm-8.06-4.46h4.388v17.479c0 .59.089 1.042.267 1.358.186.307.428.517.727.63s.63.17.994.17c.275 0 .525-.02.751-.061.234-.04.412-.077.533-.109l.739 3.43c-.234.081-.57.17-1.006.267-.428.097-.953.153-1.576.17-1.099.032-2.089-.133-2.97-.497a4.618 4.618 0 0 1-2.097-1.721c-.509-.776-.76-1.745-.752-2.909V.389zm24.813 9.382-4 .436a3.204 3.204 0 0 0-.594-1.139c-.275-.356-.646-.642-1.115-.861s-1.042-.327-1.721-.327c-.913 0-1.681.198-2.303.594-.614.396-.917.909-.909 1.539-.008.541.19.982.594 1.321.412.339 1.091.618 2.036.836l3.176.679c1.762.38 3.071.982 3.927 1.806.865.824 1.301 1.903 1.309 3.236-.008 1.172-.351 2.206-1.03 3.103-.671.889-1.604 1.584-2.8 2.085s-2.57.752-4.121.752c-2.279 0-4.113-.477-5.503-1.43-1.39-.962-2.218-2.299-2.485-4.012l4.279-.412c.194.84.606 1.475 1.236 1.903s1.45.642 2.461.642c1.042 0 1.879-.214 2.509-.642.638-.428.958-.958.958-1.588 0-.533-.206-.974-.618-1.321-.404-.347-1.034-.614-1.891-.8l-3.176-.667c-1.786-.372-3.107-.998-3.964-1.879-.857-.889-1.281-2.012-1.273-3.37-.008-1.147.303-2.141.933-2.982.638-.848 1.523-1.503 2.655-1.964 1.139-.469 2.452-.703 3.939-.703 2.182 0 3.899.465 5.151 1.394 1.261.929 2.041 2.186 2.339 3.77zm5.356 13.963c-.735 0-1.366-.259-1.891-.776s-.784-1.148-.776-1.891c-.008-.727.25-1.349.776-1.867s1.156-.776 1.891-.776c.711 0 1.329.259 1.855.776.533.517.804 1.139.812 1.867a2.585 2.585 0 0 1-.388 1.346 2.798 2.798 0 0 1-.97.97 2.526 2.526 0 0 1-1.309.352z"/></symbol><symbol id="icon-logo-night-desk" viewBox="0 0 173 32"><path fill="#9bb537" style="fill:var(--color1,#9bb537)" d="M11.735 5.989v3.369H1.111V5.989h10.624zM3.734 1.562H8.09v17.35c0 .586.088 1.035.265 1.348.184.305.425.513.722.626s.626.168.987.168c.273 0 .521-.02.746-.06.233-.04.409-.076.529-.108l.734 3.405c-.233.08-.566.168-.999.265-.425.096-.947.152-1.564.168-1.091.032-2.074-.132-2.948-.493a4.593 4.593 0 0 1-2.082-1.709c-.505-.77-.754-1.733-.746-2.888V1.562zm15.607 23.282c-1.171 0-2.226-.209-3.164-.626a5.17 5.17 0 0 1-2.214-1.877c-.537-.826-.806-1.845-.806-3.056 0-1.043.193-1.905.578-2.587s.91-1.227 1.576-1.636a7.941 7.941 0 0 1 2.25-.926 18.208 18.208 0 0 1 2.611-.469c1.083-.112 1.961-.213 2.635-.301.674-.096 1.163-.241 1.468-.433.313-.201.469-.509.469-.926v-.072c0-.906-.269-1.608-.806-2.106s-1.312-.746-2.322-.746c-1.067 0-1.913.233-2.539.698-.618.465-1.035 1.015-1.251 1.648l-4.067-.578c.321-1.123.85-2.062 1.588-2.816.738-.762 1.64-1.332 2.707-1.709 1.067-.385 2.246-.578 3.537-.578.89 0 1.777.104 2.659.313s1.688.553 2.418 1.035c.73.473 1.315 1.119 1.757 1.937.449.818.674 1.841.674 3.068V24.47h-4.187v-2.539h-.144a5.332 5.332 0 0 1-1.119 1.444c-.473.441-1.071.798-1.793 1.071-.714.265-1.552.397-2.515.397zm1.131-3.201c.874 0 1.632-.173 2.274-.517.642-.353 1.135-.818 1.48-1.396a3.555 3.555 0 0 0 .529-1.889v-2.178c-.136.112-.369.217-.698.313-.321.096-.682.18-1.083.253s-.798.136-1.191.192l-1.023.144c-.65.088-1.231.233-1.745.433s-.918.481-1.215.842c-.297.353-.445.81-.445 1.372 0 .802.293 1.408.878 1.817s1.331.614 2.238.614zM46.73 10.874l-3.971.433a3.184 3.184 0 0 0-.59-1.131c-.273-.353-.642-.638-1.107-.854s-1.035-.325-1.709-.325c-.907 0-1.669.197-2.286.59-.61.393-.91.902-.902 1.528-.008.537.188.975.59 1.312.409.337 1.083.614 2.021.83l3.152.674c1.749.377 3.048.975 3.898 1.793.858.818 1.291 1.889 1.299 3.213-.008 1.163-.349 2.19-1.023 3.08-.666.882-1.592 1.572-2.779 2.07s-2.551.746-4.091.746c-2.262 0-4.083-.473-5.463-1.42-1.38-.955-2.202-2.282-2.467-3.983l4.247-.409c.193.834.602 1.464 1.227 1.889s1.44.638 2.443.638c1.035 0 1.865-.213 2.491-.638.634-.425.951-.951.951-1.576a1.64 1.64 0 0 0-.614-1.311c-.401-.345-1.027-.61-1.877-.794l-3.152-.662c-1.773-.369-3.084-.991-3.934-1.865-.85-.882-1.271-1.997-1.263-3.345-.008-1.139.301-2.126.926-2.96.634-.842 1.512-1.492 2.635-1.949 1.131-.465 2.434-.698 3.91-.698 2.166 0 3.87.461 5.114 1.384 1.251.922 2.025 2.17 2.322 3.742zm11.862-4.885v3.369H47.968V5.989h10.624zm-8.001-4.427h4.356v17.35c0 .586.088 1.035.265 1.348.184.305.425.513.722.626s.626.168.987.168c.273 0 .521-.02.746-.06.233-.04.409-.076.529-.108l.734 3.405c-.232.08-.565.168-.999.265-.425.096-.946.152-1.564.168-1.091.032-2.073-.132-2.948-.493a4.585 4.585 0 0 1-2.081-1.709c-.505-.77-.754-1.733-.746-2.888V1.562zm12.996 29.839a8.831 8.831 0 0 1-1.648-.144c-.497-.088-.895-.193-1.191-.313l1.011-3.393c.634.184 1.199.273 1.697.265s.934-.165 1.311-.469c.385-.297.71-.794.975-1.492l.373-.999L59.413 5.99h4.62l4.259 13.957h.192L72.755 5.99h4.632l-7.4 20.719c-.345.979-.802 1.817-1.372 2.515a5.564 5.564 0 0 1-2.094 1.612c-.818.377-1.797.565-2.936.565z"/><path fill="#fff" style="fill:var(--color3,#fff)" d="M88.275 5.989v3.369H77.651V5.989h10.624zm-8.002-4.427h4.356v17.35c0 .586.088 1.035.265 1.348.184.305.425.513.722.626s.626.168.987.168c.273 0 .521-.02.746-.06.232-.04.409-.076.529-.108l.734 3.405c-.232.08-.565.168-.999.265-.425.096-.946.152-1.564.168-1.091.032-2.073-.132-2.948-.493a4.593 4.593 0 0 1-2.082-1.709c-.505-.77-.754-1.733-.746-2.888V1.562zm10.289 22.909V5.99h4.223v3.08h.192c.337-1.067.914-1.889 1.733-2.467.826-.586 1.769-.878 2.827-.878.241 0 .509.012.806.036.305.016.557.044.758.084v4.007c-.184-.064-.477-.12-.878-.168A8.102 8.102 0 0 0 99.08 9.6c-.794 0-1.508.172-2.142.517-.626.337-1.119.806-1.48 1.408s-.541 1.295-.541 2.082v10.865h-4.356zm19.5.361c-1.853 0-3.453-.385-4.801-1.155-1.339-.778-2.37-1.877-3.092-3.297-.722-1.428-1.083-3.108-1.083-5.041 0-1.901.361-3.57 1.083-5.005.73-1.444 1.749-2.567 3.056-3.369 1.307-.81 2.843-1.215 4.608-1.215 1.139 0 2.214.184 3.225.553a7.284 7.284 0 0 1 2.695 1.684c.786.762 1.404 1.733 1.853 2.912.449 1.171.674 2.567.674 4.187v1.336h-15.148v-2.936h10.973c-.008-.834-.189-1.576-.542-2.226a3.933 3.933 0 0 0-1.48-1.552c-.626-.377-1.355-.566-2.19-.566-.89 0-1.672.217-2.346.65a4.479 4.479 0 0 0-1.576 1.684 4.848 4.848 0 0 0-.566 2.274v2.563c0 1.075.197 1.997.59 2.767a4.207 4.207 0 0 0 1.649 1.757c.706.401 1.532.602 2.478.602a5.26 5.26 0 0 0 1.721-.265c.513-.184.959-.453 1.336-.806s.662-.79.854-1.311l4.067.457a6.34 6.34 0 0 1-1.468 2.815c-.714.794-1.628 1.412-2.743 1.853-1.115.433-2.39.65-3.826.65zm15.865.012c-1.171 0-2.226-.209-3.164-.626a5.16 5.16 0 0 1-2.214-1.877c-.537-.826-.806-1.845-.806-3.056 0-1.043.192-1.905.578-2.587s.91-1.227 1.576-1.636 1.416-.718 2.25-.926a18.208 18.208 0 0 1 2.611-.469c1.083-.112 1.961-.213 2.635-.301.674-.096 1.163-.241 1.468-.433.313-.201.469-.509.469-.926v-.072c0-.906-.269-1.608-.806-2.106s-1.311-.746-2.322-.746c-1.067 0-1.913.233-2.539.698-.618.465-1.035 1.015-1.251 1.648l-4.067-.578c.321-1.123.85-2.062 1.588-2.816.738-.762 1.64-1.332 2.707-1.709 1.067-.385 2.246-.578 3.538-.578.89 0 1.777.104 2.659.313s1.688.553 2.418 1.035c.73.473 1.316 1.119 1.757 1.937.449.818.674 1.841.674 3.068V24.47h-4.187v-2.539h-.144a5.332 5.332 0 0 1-1.119 1.444c-.473.441-1.071.798-1.793 1.071-.714.265-1.552.397-2.515.397zm1.131-3.201c.874 0 1.632-.173 2.274-.517.642-.353 1.135-.818 1.48-1.396.353-.578.53-1.207.53-1.889v-2.178c-.136.112-.369.217-.698.313-.321.096-.682.18-1.083.253s-.798.136-1.191.192l-1.023.144c-.65.088-1.231.233-1.745.433s-.918.481-1.215.842c-.297.353-.445.81-.445 1.372 0 .802.293 1.408.878 1.817s1.332.614 2.238.614zm20.88-15.654v3.369h-10.624V5.989h10.624zm-8.001-4.427h4.356v17.35c0 .586.088 1.035.265 1.348.184.305.425.513.722.626s.626.168.987.168c.273 0 .521-.02.746-.06.233-.04.409-.076.53-.108l.734 3.405a9.94 9.94 0 0 1-.999.265c-.425.096-.947.152-1.564.168-1.091.032-2.074-.132-2.948-.493a4.593 4.593 0 0 1-2.082-1.709c-.505-.77-.754-1.733-.746-2.888V1.562zm24.631 9.312-3.97.433a3.184 3.184 0 0 0-.59-1.131c-.273-.353-.642-.638-1.107-.854s-1.035-.325-1.709-.325c-.906 0-1.668.197-2.286.59-.609.393-.91.902-.902 1.528-.008.537.189.975.59 1.312.409.337 1.083.614 2.021.83l3.152.674c1.749.377 3.048.975 3.898 1.793.858.818 1.291 1.889 1.3 3.213-.008 1.163-.349 2.19-1.023 3.08-.666.882-1.592 1.572-2.779 2.07s-2.551.746-4.091.746c-2.262 0-4.083-.473-5.463-1.42-1.38-.955-2.202-2.282-2.467-3.983l4.247-.409c.193.834.602 1.464 1.227 1.889s1.44.638 2.443.638c1.035 0 1.865-.213 2.491-.638.634-.425.95-.951.95-1.576 0-.529-.204-.967-.614-1.311-.401-.345-1.027-.61-1.877-.794l-3.152-.662c-1.773-.369-3.084-.991-3.935-1.865-.85-.882-1.272-1.997-1.263-3.345-.008-1.139.301-2.126.927-2.96.634-.842 1.512-1.492 2.635-1.949 1.131-.465 2.435-.698 3.911-.698 2.166 0 3.87.461 5.114 1.384 1.251.922 2.025 2.17 2.322 3.742zm5.316 13.861c-.73 0-1.355-.257-1.877-.77s-.778-1.139-.77-1.877c-.008-.722.249-1.34.77-1.853s1.147-.77 1.877-.77c.706 0 1.32.257 1.841.77.53.513.798 1.131.806 1.853a2.568 2.568 0 0 1-.385 1.336 2.772 2.772 0 0 1-.962.963 2.51 2.51 0 0 1-1.3.349z"/></symbol><symbol id="icon-logo-night-mob" viewBox="0 0 175 32"><path fill="#9bb537" style="fill:var(--color1,#9bb537)" d="M12.178 4.848v3.394H1.475V4.848h10.703zM4.117.388h4.388v17.479c0 .59.089 1.042.267 1.358.186.307.428.517.727.63s.63.17.994.17c.275 0 .525-.02.752-.061.234-.04.412-.077.533-.109l.739 3.43c-.234.081-.57.17-1.006.267-.428.097-.954.153-1.576.17-1.099.032-2.089-.133-2.97-.497a4.618 4.618 0 0 1-2.097-1.721c-.509-.776-.76-1.745-.752-2.909V.389zm15.722 23.454c-1.18 0-2.242-.21-3.188-.63a5.201 5.201 0 0 1-2.23-1.891c-.541-.832-.812-1.859-.812-3.079 0-1.051.194-1.919.582-2.606s.917-1.236 1.588-1.649a8.008 8.008 0 0 1 2.267-.933 18.448 18.448 0 0 1 2.63-.473c1.091-.113 1.976-.214 2.655-.303.679-.097 1.172-.242 1.479-.436.315-.202.473-.513.473-.933v-.073c0-.913-.271-1.62-.812-2.121s-1.321-.752-2.339-.752c-1.075 0-1.927.234-2.558.703-.622.469-1.042 1.022-1.261 1.661l-4.097-.582c.323-1.131.857-2.077 1.6-2.836.743-.768 1.653-1.341 2.727-1.721 1.075-.388 2.263-.582 3.564-.582.897 0 1.79.105 2.679.315s1.701.558 2.436 1.042c.735.477 1.325 1.127 1.77 1.952.452.824.679 1.855.679 3.091v12.461h-4.218v-2.558h-.145a5.371 5.371 0 0 1-1.127 1.455c-.477.444-1.079.804-1.806 1.079-.719.267-1.564.4-2.533.4zm1.14-3.224c.881 0 1.645-.174 2.291-.521.646-.356 1.143-.824 1.491-1.406a3.586 3.586 0 0 0 .533-1.903v-2.194c-.137.113-.372.218-.703.315-.323.097-.687.182-1.091.255s-.804.137-1.2.194c-.396.057-.739.105-1.03.145-.655.089-1.24.234-1.758.436s-.925.485-1.224.849c-.299.356-.448.816-.448 1.382 0 .808.295 1.418.885 1.83s1.341.618 2.255.618zM47.432 9.77l-4 .436a3.204 3.204 0 0 0-.594-1.139c-.275-.356-.646-.642-1.115-.861s-1.043-.327-1.721-.327c-.913 0-1.681.198-2.303.594-.614.396-.917.909-.909 1.539-.008.541.19.982.594 1.321.412.339 1.091.618 2.036.836l3.176.679c1.761.38 3.071.982 3.927 1.806.865.824 1.301 1.903 1.309 3.236-.008 1.172-.352 2.206-1.03 3.103-.671.889-1.604 1.584-2.8 2.085s-2.57.752-4.121.752c-2.279 0-4.113-.477-5.503-1.43-1.39-.962-2.218-2.299-2.485-4.012l4.279-.412c.194.84.606 1.475 1.236 1.903s1.451.642 2.461.642c1.042 0 1.879-.214 2.509-.642.638-.428.958-.958.958-1.588 0-.533-.206-.974-.618-1.321-.404-.347-1.034-.614-1.891-.8l-3.176-.667c-1.786-.372-3.107-.998-3.964-1.879-.857-.889-1.281-2.012-1.273-3.37-.008-1.147.303-2.141.933-2.982.639-.848 1.523-1.503 2.655-1.964 1.139-.469 2.452-.703 3.939-.703 2.182 0 3.899.465 5.152 1.394 1.261.929 2.041 2.186 2.339 3.77zm11.95-4.922v3.394H48.679V4.848h10.703zM51.321.388h4.388v17.479c0 .59.089 1.042.267 1.358.186.307.428.517.727.63s.63.17.994.17c.275 0 .525-.02.752-.061.234-.04.412-.077.533-.109l.739 3.43c-.234.081-.57.17-1.006.267-.428.097-.954.153-1.576.17-1.099.032-2.089-.133-2.97-.497a4.618 4.618 0 0 1-2.097-1.721c-.509-.776-.759-1.745-.751-2.909V.389zm13.092 30.06a8.886 8.886 0 0 1-1.661-.145c-.501-.089-.901-.194-1.2-.315l1.018-3.418c.639.186 1.208.275 1.709.267s.941-.166 1.321-.473c.388-.299.715-.8.982-1.503l.376-1.006-6.751-19.006h4.655l4.291 14.061h.194L73.65 4.849h4.667l-7.454 20.873c-.348.986-.808 1.83-1.382 2.533a5.624 5.624 0 0 1-2.109 1.624c-.824.38-1.81.57-2.957.57z"/><path fill="#fff" style="fill:var(--color3,#fff)" d="M89.284 4.848v3.394H78.581V4.848h10.703zm-8.06-4.46h4.388v17.479c0 .59.089 1.042.267 1.358.186.307.428.517.727.63s.63.17.994.17c.275 0 .525-.02.752-.061.234-.04.412-.077.533-.109l.739 3.43c-.234.081-.57.17-1.006.267-.428.097-.954.153-1.576.17-1.099.032-2.089-.133-2.97-.497a4.618 4.618 0 0 1-2.097-1.721c-.509-.776-.759-1.745-.751-2.909V.389zm10.364 23.079V4.849h4.255v3.103h.194c.339-1.075.921-1.903 1.745-2.485.832-.59 1.782-.885 2.849-.885.242 0 .513.012.812.036.307.016.562.044.764.085v4.036c-.186-.065-.481-.121-.885-.17a8.08 8.08 0 0 0-1.151-.085c-.8 0-1.519.174-2.158.521-.63.339-1.127.812-1.491 1.418s-.546 1.305-.546 2.097v10.945h-4.388zm19.644.363c-1.867 0-3.479-.388-4.836-1.164-1.35-.784-2.388-1.891-3.115-3.321-.727-1.438-1.091-3.131-1.091-5.079 0-1.915.364-3.596 1.091-5.042.735-1.455 1.761-2.586 3.079-3.394 1.317-.816 2.865-1.224 4.642-1.224 1.148 0 2.23.186 3.248.558a7.345 7.345 0 0 1 2.715 1.697c.792.768 1.414 1.745 1.867 2.933.453 1.18.679 2.586.679 4.218v1.345H104.25v-2.958h11.055c-.008-.84-.19-1.588-.545-2.242a3.972 3.972 0 0 0-1.491-1.564c-.63-.38-1.366-.57-2.206-.57-.897 0-1.685.218-2.364.655a4.509 4.509 0 0 0-1.588 1.697 4.893 4.893 0 0 0-.57 2.291v2.582c0 1.083.198 2.012.594 2.788.396.768.95 1.358 1.661 1.77.711.404 1.543.606 2.497.606.638 0 1.216-.089 1.733-.267.517-.186.966-.457 1.345-.812s.667-.796.861-1.321l4.097.461a6.392 6.392 0 0 1-1.479 2.836c-.719.8-1.64 1.422-2.764 1.867-1.123.436-2.408.655-3.855.655zm15.983.012c-1.18 0-2.242-.21-3.188-.63a5.201 5.201 0 0 1-2.23-1.891c-.541-.832-.812-1.859-.812-3.079 0-1.051.194-1.919.582-2.606s.917-1.236 1.588-1.649a8.008 8.008 0 0 1 2.267-.933 18.474 18.474 0 0 1 2.63-.473c1.091-.113 1.976-.214 2.655-.303.679-.097 1.172-.242 1.479-.436.315-.202.473-.513.473-.933v-.073c0-.913-.271-1.62-.812-2.121s-1.321-.752-2.339-.752c-1.075 0-1.927.234-2.558.703-.622.469-1.042 1.022-1.261 1.661l-4.097-.582c.323-1.131.857-2.077 1.6-2.836.743-.768 1.652-1.341 2.727-1.721 1.075-.388 2.263-.582 3.564-.582.897 0 1.79.105 2.679.315s1.701.558 2.436 1.042c.735.477 1.325 1.127 1.77 1.952.452.824.679 1.855.679 3.091v12.461h-4.218v-2.558h-.145a5.371 5.371 0 0 1-1.127 1.455c-.477.444-1.079.804-1.806 1.079-.719.267-1.564.4-2.533.4zm1.14-3.224c.881 0 1.645-.174 2.291-.521.646-.356 1.143-.824 1.491-1.406a3.586 3.586 0 0 0 .533-1.903v-2.194c-.137.113-.372.218-.703.315-.323.097-.687.182-1.091.255s-.804.137-1.2.194c-.396.057-.739.105-1.03.145-.654.089-1.24.234-1.758.436s-.925.485-1.224.849c-.299.356-.449.816-.449 1.382 0 .808.295 1.418.885 1.83s1.341.618 2.255.618zm21.034-15.77v3.394h-10.703V4.848h10.703zm-8.06-4.46h4.388v17.479c0 .59.089 1.042.267 1.358.186.307.428.517.727.63s.63.17.994.17c.275 0 .525-.02.751-.061.234-.04.412-.077.533-.109l.739 3.43c-.234.081-.57.17-1.006.267-.428.097-.953.153-1.576.17-1.099.032-2.089-.133-2.97-.497a4.618 4.618 0 0 1-2.097-1.721c-.509-.776-.76-1.745-.752-2.909V.389zm24.813 9.382-4 .436a3.204 3.204 0 0 0-.594-1.139c-.275-.356-.646-.642-1.115-.861s-1.042-.327-1.721-.327c-.913 0-1.681.198-2.303.594-.614.396-.917.909-.909 1.539-.008.541.19.982.594 1.321.412.339 1.091.618 2.036.836l3.176.679c1.762.38 3.071.982 3.927 1.806.865.824 1.301 1.903 1.309 3.236-.008 1.172-.351 2.206-1.03 3.103-.671.889-1.604 1.584-2.8 2.085s-2.57.752-4.121.752c-2.279 0-4.113-.477-5.503-1.43-1.39-.962-2.218-2.299-2.485-4.012l4.279-.412c.194.84.606 1.475 1.236 1.903s1.45.642 2.461.642c1.042 0 1.879-.214 2.509-.642.638-.428.958-.958.958-1.588 0-.533-.206-.974-.618-1.321-.404-.347-1.034-.614-1.891-.8l-3.176-.667c-1.786-.372-3.107-.998-3.964-1.879-.857-.889-1.281-2.012-1.273-3.37-.008-1.147.303-2.141.933-2.982.638-.848 1.523-1.503 2.655-1.964 1.139-.469 2.452-.703 3.939-.703 2.182 0 3.899.465 5.151 1.394 1.261.929 2.041 2.186 2.339 3.77zm5.356 13.963c-.735 0-1.366-.259-1.891-.776s-.784-1.148-.776-1.891c-.008-.727.25-1.349.776-1.867s1.156-.776 1.891-.776c.711 0 1.329.259 1.855.776.533.517.804 1.139.812 1.867a2.585 2.585 0 0 1-.388 1.346 2.798 2.798 0 0 1-.97.97 2.526 2.526 0 0 1-1.309.352z"/></symbol><symbol id="icon-switch-off" viewBox="0 0 50 32"><path fill="#cecdcd" style="fill:var(--color4,#cecdcd)" d="M13.176 6.902H29.49a6.274 6.274 0 0 1 0 12.549H13.176a6.274 6.274 0 0 1 0-12.548z"/><path fill="#f8f8f8" style="fill:var(--color5,#f8f8f8)" d="M19.074 13.177a5.898 5.898 0 1 1-11.797-.001 5.898 5.898 0 0 1 11.797.001z"/></symbol><symbol id="icon-switch-on" viewBox="0 0 48 32"><path fill="#9bb537" style="fill:var(--color1,#9bb537)" d="M11.294 6.902h16.314a6.275 6.275 0 0 1 .001 12.549H11.295a6.274 6.274 0 0 1 0-12.548z"/><path fill="#f3f3f3" style="fill:var(--color7,#f3f3f3)" d="M33.506 13.176a5.898 5.898 0 1 1-11.797-.001 5.898 5.898 0 0 1 11.797.001z"/></symbol><symbol id="icon-search" viewBox="0 0 32 32"><path d="M28.947 27.054 24 22.147a11.999 11.999 0 0 0-1.353-16.445 12 12 0 1 0-.5 18.298l4.907 4.907a1.334 1.334 0 0 0 1.894 0 1.336 1.336 0 0 0 0-1.854zm-14.28-3.053a9.33 9.33 0 0 1-8.623-5.762A9.339 9.339 0 0 1 8.067 8.067a9.331 9.331 0 0 1 10.172-2.023 9.336 9.336 0 0 1 5.762 8.623 9.333 9.333 0 0 1-9.334 9.334z"/></symbol><symbol id="icon-heart" viewBox="0 0 32 32"><path stroke-linejoin="round" stroke-linecap="round" stroke-width="2.909" d="M15.991 6.848C13.325 3.731 8.88 2.893 5.54 5.747s-3.81 7.625-1.187 11c2.181 2.806 8.781 8.725 10.944 10.641.242.214.363.321.504.364a.668.668 0 0 0 .381 0c.141-.042.262-.149.504-.364 2.163-1.916 8.763-7.834 10.944-10.641 2.623-3.375 2.21-8.177-1.187-11.001s-7.786-2.015-10.451 1.101z"/></symbol><symbol id="icon-close" viewBox="0 0 32 32"><path stroke-linejoin="round" stroke-linecap="round" stroke-width="2.667" d="M24 8 8 24M8 8l16 16"/></symbol><symbol id="icon-burger" viewBox="0 0 31 32"><path stroke-linejoin="round" stroke-linecap="round" stroke-width="1.939" d="M27.151 13.414H3.878M27.151 8.242H3.878M27.151 18.586H3.878M27.151 23.758H3.878"/></symbol><symbol id="icon-star" viewBox="0 0 34 32"><path d="M14.89 2.282c.738-2.267 3.946-2.267 4.682 0l2.08 6.4a2.466 2.466 0 0 0 2.341 1.703h6.732c2.385 0 3.375 3.052 1.447 4.453l-5.447 3.956a2.461 2.461 0 0 0-.888 2.769l-.005-.017 2.08 6.402c.738 2.267-1.858 4.155-3.788 2.752l-5.445-3.956c-.401-.294-.903-.471-1.447-.471s-1.047.176-1.454.475l.007-.005-5.445 3.956c-1.93 1.403-4.524-.485-3.788-2.752l2.08-6.4a2.459 2.459 0 0 0-.887-2.75l-.007-.005-5.447-3.956c-1.927-1.403-.935-4.455 1.447-4.455h6.732A2.463 2.463 0 0 0 12.803 8.7l.005-.017 2.082-6.4z"/></symbol><symbol id="icon-order" viewBox="0 0 32 32"><path fill="none" stroke-linejoin="round" stroke-linecap="round" stroke-width="2.4" d="M12 29.333a1.333 1.333 0 1 0 0-2.667 1.333 1.333 0 0 0 0 2.667zM26.667 29.333a1.333 1.333 0 1 0 0-2.667 1.333 1.333 0 0 0 0 2.667zM1.333 1.333h5.333l3.573 17.853a2.671 2.671 0 0 0 2.666 2.147h12.96a2.667 2.667 0 0 0 2.666-2.147l2.133-11.187H7.997"/></symbol><symbol id="icon-favorites" viewBox="0 0 37 32"><path fill="#9bb537" style="fill:var(--color1,#9bb537)" d="M7.325 12.723h23.133v17.735H7.325V12.723z"/><path fill="#9bb537" style="fill:var(--color1,#9bb537)" d="M16.578 11.373a8.289 8.289 0 1 1-16.578 0 8.289 8.289 0 1 1 16.578 0z"/><path fill="#9bb537" style="fill:var(--color1,#9bb537)" d="M26.988 8.289a8.289 8.289 0 1 1-16.578 0 8.289 8.289 0 1 1 16.578 0z"/><path fill="#9bb537" style="fill:var(--color1,#9bb537)" d="M37.398 11.373a8.289 8.289 0 1 1-16.578 0 8.289 8.289 0 1 1 16.578 0z"/><path fill="#f8f8f8" style="fill:var(--color2,#f8f8f8)" d="M7.325 29.301h23.133v2.036c0 .366-.324.663-.723.663H8.048c-.399 0-.723-.297-.723-.663v-2.036zm6.94-18.941c0-.611.432-1.107.964-1.107s.964.495.964 1.107v5.112c0 .611-.432 1.107-.964 1.107s-.964-.495-.964-1.107V10.36zm3.084 0c0-.611.604-1.107 1.349-1.107s1.349.495 1.349 1.107v5.112c0 .611-.604 1.107-1.349 1.107s-1.349-.495-1.349-1.107V10.36zm3.856 0c0-.611.432-1.107.964-1.107s.964.495.964 1.107v5.112c0 .611-.432 1.107-.964 1.107s-.964-.495-.964-1.107V10.36z"/><path fill="#050505" style="fill:var(--color3,#050505)" d="M28.184 3.131c.262-.029.566-.045.874-.045h.005a8.332 8.332 0 0 1 7.938 5.746 8.333 8.333 0 0 1-8.816-5.7z"/></symbol><symbol id="icon-star-modal" viewBox="0 0 32 32"><path d="M15.411 1.117a.667.667 0 0 1 1.177-.004l.002.004 4.148 7.861c.096.18.268.31.472.346l.004.001 8.759 1.515a.667.667 0 0 1 .363 1.122l-6.195 6.375a.667.667 0 0 0-.181.563v-.004l1.265 8.797a.667.667 0 0 1-.959.692l.004.002-7.976-3.921a.66.66 0 0 0-.594.001l.004-.002-7.976 3.921a.667.667 0 0 1-.955-.697v.004l1.267-8.797a.665.665 0 0 0-.183-.561l-6.195-6.373a.665.665 0 0 1 .36-1.122l.004-.001 8.759-1.515a.667.667 0 0 0 .474-.343l.002-.004 4.147-7.861z"/></symbol></defs></svg>