<svg aria-hidden="true" style="position: absolute; width: 0; height: 0; overflow: hidden;" version="1.1" xmlns="http://www.w3.org/2000/svg" xmlns:xlink="http://www.w3.org/1999/xlink">
<defs>

<symbol id="icon-logo-day-desk" viewBox="0 0 173 32">
<path fill="#050505" style="fill: var(--color2, #050505)" d="M88.275 5.989v3.369h-10.624v-3.369h10.624zM80.273 1.562h4.356v17.35c0 0.586 0.088 1.035 0.265 1.348 0.184 0.305 0.425 0.513 0.722 0.626s0.626 0.168 0.987 0.168c0.273 0 0.521-0.020 0.746-0.060 0.232-0.040 0.409-0.076 0.529-0.108l0.734 3.405c-0.232 0.080-0.565 0.168-0.999 0.265-0.425 0.096-0.946 0.152-1.564 0.168-1.091 0.032-2.073-0.132-2.948-0.493-0.874-0.369-1.568-0.939-2.082-1.709-0.505-0.77-0.754-1.733-0.746-2.888v-18.072zM90.562 24.471v-18.481h4.223v3.080h0.192c0.337-1.067 0.914-1.889 1.733-2.467 0.826-0.586 1.769-0.878 2.827-0.878 0.241 0 0.509 0.012 0.806 0.036 0.305 0.016 0.557 0.044 0.758 0.084v4.007c-0.184-0.064-0.477-0.12-0.878-0.168-0.393-0.056-0.774-0.084-1.143-0.084-0.794 0-1.508 0.172-2.142 0.517-0.626 0.337-1.119 0.806-1.48 1.408s-0.541 1.295-0.541 2.082v10.865h-4.356zM110.062 24.832c-1.853 0-3.453-0.385-4.801-1.155-1.339-0.778-2.37-1.877-3.092-3.297-0.722-1.428-1.083-3.108-1.083-5.041 0-1.901 0.361-3.57 1.083-5.005 0.73-1.444 1.749-2.567 3.056-3.369 1.307-0.81 2.843-1.215 4.608-1.215 1.139 0 2.214 0.184 3.225 0.553 1.019 0.361 1.917 0.922 2.695 1.684 0.786 0.762 1.404 1.733 1.853 2.912 0.449 1.171 0.674 2.567 0.674 4.187v1.336h-15.148v-2.936h10.973c-0.008-0.834-0.189-1.576-0.542-2.226-0.353-0.658-0.846-1.175-1.48-1.552-0.626-0.377-1.355-0.566-2.19-0.566-0.89 0-1.672 0.217-2.346 0.65-0.674 0.425-1.199 0.987-1.576 1.684-0.369 0.69-0.558 1.448-0.566 2.274v2.563c0 1.075 0.197 1.997 0.59 2.767 0.393 0.762 0.943 1.348 1.649 1.757 0.706 0.401 1.532 0.602 2.478 0.602 0.634 0 1.207-0.088 1.721-0.265 0.513-0.184 0.959-0.453 1.336-0.806s0.662-0.79 0.854-1.311l4.067 0.457c-0.257 1.075-0.746 2.013-1.468 2.815-0.714 0.794-1.628 1.412-2.743 1.853-1.115 0.433-2.39 0.65-3.826 0.65zM125.927 24.844c-1.171 0-2.226-0.209-3.164-0.626-0.931-0.425-1.669-1.051-2.214-1.877-0.537-0.826-0.806-1.845-0.806-3.056 0-1.043 0.192-1.905 0.578-2.587s0.91-1.227 1.576-1.636 1.416-0.718 2.25-0.926c0.842-0.217 1.713-0.373 2.611-0.469 1.083-0.112 1.961-0.213 2.635-0.301 0.674-0.096 1.163-0.241 1.468-0.433 0.313-0.201 0.469-0.509 0.469-0.926v-0.072c0-0.906-0.269-1.608-0.806-2.106s-1.311-0.746-2.322-0.746c-1.067 0-1.913 0.233-2.539 0.698-0.618 0.465-1.035 1.015-1.251 1.648l-4.067-0.578c0.321-1.123 0.85-2.062 1.588-2.816 0.738-0.762 1.64-1.332 2.707-1.709 1.067-0.385 2.246-0.578 3.538-0.578 0.89 0 1.777 0.104 2.659 0.313s1.688 0.553 2.418 1.035c0.73 0.473 1.316 1.119 1.757 1.937 0.449 0.818 0.674 1.841 0.674 3.068v12.369h-4.187v-2.539h-0.144c-0.265 0.513-0.638 0.995-1.119 1.444-0.473 0.441-1.071 0.798-1.793 1.071-0.714 0.265-1.552 0.397-2.515 0.397zM127.058 21.643c0.874 0 1.632-0.173 2.274-0.517 0.642-0.353 1.135-0.818 1.48-1.396 0.353-0.578 0.53-1.207 0.53-1.889v-2.178c-0.136 0.112-0.369 0.217-0.698 0.313-0.321 0.096-0.682 0.18-1.083 0.253s-0.798 0.136-1.191 0.192-0.734 0.104-1.023 0.144c-0.65 0.088-1.231 0.233-1.745 0.433s-0.918 0.481-1.215 0.842c-0.297 0.353-0.445 0.81-0.445 1.372 0 0.802 0.293 1.408 0.878 1.817s1.332 0.614 2.238 0.614zM147.938 5.989v3.369h-10.624v-3.369h10.624zM139.937 1.562h4.356v17.35c0 0.586 0.088 1.035 0.265 1.348 0.184 0.305 0.425 0.513 0.722 0.626s0.626 0.168 0.987 0.168c0.273 0 0.521-0.020 0.746-0.060 0.233-0.040 0.409-0.076 0.53-0.108l0.734 3.405c-0.233 0.080-0.565 0.168-0.999 0.265-0.425 0.096-0.947 0.152-1.564 0.168-1.091 0.032-2.074-0.132-2.948-0.493-0.874-0.369-1.568-0.939-2.082-1.709-0.505-0.77-0.754-1.733-0.746-2.888v-18.072zM164.568 10.874l-3.97 0.433c-0.112-0.401-0.309-0.778-0.59-1.131-0.273-0.353-0.642-0.638-1.107-0.854s-1.035-0.325-1.709-0.325c-0.906 0-1.668 0.197-2.286 0.59-0.609 0.393-0.91 0.902-0.902 1.528-0.008 0.537 0.189 0.975 0.59 1.312 0.409 0.337 1.083 0.614 2.021 0.83l3.152 0.674c1.749 0.377 3.048 0.975 3.898 1.793 0.858 0.818 1.291 1.889 1.3 3.213-0.008 1.163-0.349 2.19-1.023 3.080-0.666 0.882-1.592 1.572-2.779 2.070s-2.551 0.746-4.091 0.746c-2.262 0-4.083-0.473-5.463-1.42-1.38-0.955-2.202-2.282-2.467-3.983l4.247-0.409c0.193 0.834 0.602 1.464 1.227 1.889s1.44 0.638 2.443 0.638c1.035 0 1.865-0.213 2.491-0.638 0.634-0.425 0.95-0.951 0.95-1.576 0-0.529-0.204-0.967-0.614-1.311-0.401-0.345-1.027-0.61-1.877-0.794l-3.152-0.662c-1.773-0.369-3.084-0.991-3.935-1.865-0.85-0.882-1.272-1.997-1.263-3.345-0.008-1.139 0.301-2.126 0.927-2.96 0.634-0.842 1.512-1.492 2.635-1.949 1.131-0.465 2.435-0.698 3.911-0.698 2.166 0 3.87 0.461 5.114 1.384 1.251 0.922 2.025 2.17 2.322 3.742zM169.884 24.735c-0.73 0-1.355-0.257-1.877-0.77s-0.778-1.139-0.77-1.877c-0.008-0.722 0.249-1.34 0.77-1.853s1.147-0.77 1.877-0.77c0.706 0 1.32 0.257 1.841 0.77 0.53 0.513 0.798 1.131 0.806 1.853-0.008 0.489-0.136 0.934-0.385 1.336-0.241 0.401-0.561 0.722-0.962 0.963-0.393 0.232-0.826 0.349-1.3 0.349z"></path>
<path fill="#9bb537" style="fill: var(--color1, #9bb537)" d="M11.735 5.989v3.369h-10.624v-3.369h10.624zM3.734 1.562h4.356v17.35c0 0.586 0.088 1.035 0.265 1.348 0.184 0.305 0.425 0.513 0.722 0.626s0.626 0.168 0.987 0.168c0.273 0 0.521-0.020 0.746-0.060 0.233-0.040 0.409-0.076 0.529-0.108l0.734 3.405c-0.233 0.080-0.566 0.168-0.999 0.265-0.425 0.096-0.947 0.152-1.564 0.168-1.091 0.032-2.074-0.132-2.948-0.493-0.874-0.369-1.568-0.939-2.082-1.709-0.505-0.77-0.754-1.733-0.746-2.888v-18.072zM19.341 24.844c-1.171 0-2.226-0.209-3.164-0.626-0.93-0.425-1.668-1.051-2.214-1.877-0.537-0.826-0.806-1.845-0.806-3.056 0-1.043 0.193-1.905 0.578-2.587s0.91-1.227 1.576-1.636c0.666-0.409 1.416-0.718 2.25-0.926 0.842-0.217 1.713-0.373 2.611-0.469 1.083-0.112 1.961-0.213 2.635-0.301 0.674-0.096 1.163-0.241 1.468-0.433 0.313-0.201 0.469-0.509 0.469-0.926v-0.072c0-0.906-0.269-1.608-0.806-2.106s-1.312-0.746-2.322-0.746c-1.067 0-1.913 0.233-2.539 0.698-0.618 0.465-1.035 1.015-1.251 1.648l-4.067-0.578c0.321-1.123 0.85-2.062 1.588-2.816 0.738-0.762 1.64-1.332 2.707-1.709 1.067-0.385 2.246-0.578 3.537-0.578 0.89 0 1.777 0.104 2.659 0.313s1.688 0.553 2.418 1.035c0.73 0.473 1.315 1.119 1.757 1.937 0.449 0.818 0.674 1.841 0.674 3.068v12.369h-4.187v-2.539h-0.144c-0.265 0.513-0.638 0.995-1.119 1.444-0.473 0.441-1.071 0.798-1.793 1.071-0.714 0.265-1.552 0.397-2.515 0.397zM20.472 21.643c0.874 0 1.632-0.173 2.274-0.517 0.642-0.353 1.135-0.818 1.48-1.396 0.353-0.578 0.529-1.207 0.529-1.889v-2.178c-0.136 0.112-0.369 0.217-0.698 0.313-0.321 0.096-0.682 0.18-1.083 0.253s-0.798 0.136-1.191 0.192c-0.393 0.056-0.734 0.104-1.023 0.144-0.65 0.088-1.231 0.233-1.745 0.433s-0.918 0.481-1.215 0.842c-0.297 0.353-0.445 0.81-0.445 1.372 0 0.802 0.293 1.408 0.878 1.817s1.331 0.614 2.238 0.614zM46.73 10.874l-3.971 0.433c-0.112-0.401-0.309-0.778-0.59-1.131-0.273-0.353-0.642-0.638-1.107-0.854s-1.035-0.325-1.709-0.325c-0.907 0-1.669 0.197-2.286 0.59-0.61 0.393-0.91 0.902-0.902 1.528-0.008 0.537 0.188 0.975 0.59 1.312 0.409 0.337 1.083 0.614 2.021 0.83l3.152 0.674c1.749 0.377 3.048 0.975 3.898 1.793 0.858 0.818 1.291 1.889 1.299 3.213-0.008 1.163-0.349 2.19-1.023 3.080-0.666 0.882-1.592 1.572-2.779 2.070s-2.551 0.746-4.091 0.746c-2.262 0-4.083-0.473-5.463-1.42-1.38-0.955-2.202-2.282-2.467-3.983l4.247-0.409c0.193 0.834 0.602 1.464 1.227 1.889s1.44 0.638 2.443 0.638c1.035 0 1.865-0.213 2.491-0.638 0.634-0.425 0.951-0.951 0.951-1.576 0-0.529-0.205-0.967-0.614-1.311-0.401-0.345-1.027-0.61-1.877-0.794l-3.152-0.662c-1.773-0.369-3.084-0.991-3.934-1.865-0.85-0.882-1.271-1.997-1.263-3.345-0.008-1.139 0.301-2.126 0.926-2.96 0.634-0.842 1.512-1.492 2.635-1.949 1.131-0.465 2.434-0.698 3.91-0.698 2.166 0 3.87 0.461 5.114 1.384 1.251 0.922 2.025 2.17 2.322 3.742zM58.592 5.989v3.369h-10.624v-3.369h10.624zM50.591 1.562h4.356v17.35c0 0.586 0.088 1.035 0.265 1.348 0.184 0.305 0.425 0.513 0.722 0.626s0.626 0.168 0.987 0.168c0.273 0 0.521-0.020 0.746-0.060 0.233-0.040 0.409-0.076 0.529-0.108l0.734 3.405c-0.232 0.080-0.565 0.168-0.999 0.265-0.425 0.096-0.946 0.152-1.564 0.168-1.091 0.032-2.073-0.132-2.948-0.493-0.874-0.369-1.568-0.939-2.081-1.709-0.505-0.77-0.754-1.733-0.746-2.888v-18.072zM63.587 31.401c-0.594 0-1.143-0.048-1.648-0.144-0.497-0.088-0.895-0.193-1.191-0.313l1.011-3.393c0.634 0.184 1.199 0.273 1.697 0.265s0.934-0.165 1.311-0.469c0.385-0.297 0.71-0.794 0.975-1.492l0.373-0.999-6.702-18.866h4.62l4.259 13.957h0.192l4.271-13.957h4.632l-7.4 20.719c-0.345 0.979-0.802 1.817-1.372 2.515-0.569 0.706-1.267 1.243-2.094 1.612-0.818 0.377-1.797 0.565-2.936 0.565z"></path>
</symbol>
<symbol id="icon-logo-day-mob" viewBox="0 0 175 32">
<path fill="#9bb537" style="fill: var(--color1, #9bb537)" d="M12.178 4.848v3.394h-10.703v-3.394h10.703zM4.117 0.388h4.388v17.479c0 0.59 0.089 1.042 0.267 1.358 0.186 0.307 0.428 0.517 0.727 0.63s0.63 0.17 0.994 0.17c0.275 0 0.525-0.020 0.752-0.061 0.234-0.040 0.412-0.077 0.533-0.109l0.739 3.43c-0.234 0.081-0.57 0.17-1.006 0.267-0.428 0.097-0.954 0.153-1.576 0.17-1.099 0.032-2.089-0.133-2.97-0.497-0.881-0.372-1.58-0.945-2.097-1.721-0.509-0.776-0.76-1.745-0.752-2.909v-18.206zM19.839 23.842c-1.18 0-2.242-0.21-3.188-0.63-0.937-0.428-1.681-1.059-2.23-1.891-0.541-0.832-0.812-1.859-0.812-3.079 0-1.051 0.194-1.919 0.582-2.606s0.917-1.236 1.588-1.649c0.671-0.412 1.426-0.723 2.267-0.933 0.848-0.218 1.725-0.376 2.63-0.473 1.091-0.113 1.976-0.214 2.655-0.303 0.679-0.097 1.172-0.242 1.479-0.436 0.315-0.202 0.473-0.513 0.473-0.933v-0.073c0-0.913-0.271-1.62-0.812-2.121s-1.321-0.752-2.339-0.752c-1.075 0-1.927 0.234-2.558 0.703-0.622 0.469-1.042 1.022-1.261 1.661l-4.097-0.582c0.323-1.131 0.857-2.077 1.6-2.836 0.743-0.768 1.653-1.341 2.727-1.721 1.075-0.388 2.263-0.582 3.564-0.582 0.897 0 1.79 0.105 2.679 0.315s1.701 0.558 2.436 1.042c0.735 0.477 1.325 1.127 1.77 1.952 0.452 0.824 0.679 1.855 0.679 3.091v12.461h-4.218v-2.558h-0.145c-0.267 0.517-0.642 1.002-1.127 1.455-0.477 0.444-1.079 0.804-1.806 1.079-0.719 0.267-1.564 0.4-2.533 0.4zM20.979 20.618c0.881 0 1.645-0.174 2.291-0.521 0.646-0.356 1.143-0.824 1.491-1.406 0.355-0.582 0.533-1.216 0.533-1.903v-2.194c-0.137 0.113-0.372 0.218-0.703 0.315-0.323 0.097-0.687 0.182-1.091 0.255s-0.804 0.137-1.2 0.194c-0.396 0.057-0.739 0.105-1.030 0.145-0.655 0.089-1.24 0.234-1.758 0.436s-0.925 0.485-1.224 0.849c-0.299 0.356-0.448 0.816-0.448 1.382 0 0.808 0.295 1.418 0.885 1.83s1.341 0.618 2.255 0.618zM47.432 9.77l-4 0.436c-0.113-0.404-0.311-0.784-0.594-1.139-0.275-0.356-0.646-0.642-1.115-0.861s-1.043-0.327-1.721-0.327c-0.913 0-1.681 0.198-2.303 0.594-0.614 0.396-0.917 0.909-0.909 1.539-0.008 0.541 0.19 0.982 0.594 1.321 0.412 0.339 1.091 0.618 2.036 0.836l3.176 0.679c1.761 0.38 3.071 0.982 3.927 1.806 0.865 0.824 1.301 1.903 1.309 3.236-0.008 1.172-0.352 2.206-1.030 3.103-0.671 0.889-1.604 1.584-2.8 2.085s-2.57 0.752-4.121 0.752c-2.279 0-4.113-0.477-5.503-1.43-1.39-0.962-2.218-2.299-2.485-4.012l4.279-0.412c0.194 0.84 0.606 1.475 1.236 1.903s1.451 0.642 2.461 0.642c1.042 0 1.879-0.214 2.509-0.642 0.638-0.428 0.958-0.958 0.958-1.588 0-0.533-0.206-0.974-0.618-1.321-0.404-0.347-1.034-0.614-1.891-0.8l-3.176-0.667c-1.786-0.372-3.107-0.998-3.964-1.879-0.857-0.889-1.281-2.012-1.273-3.37-0.008-1.147 0.303-2.141 0.933-2.982 0.639-0.848 1.523-1.503 2.655-1.964 1.139-0.469 2.452-0.703 3.939-0.703 2.182 0 3.899 0.465 5.152 1.394 1.261 0.929 2.041 2.186 2.339 3.77zM59.382 4.848v3.394h-10.703v-3.394h10.703zM51.321 0.388h4.388v17.479c0 0.59 0.089 1.042 0.267 1.358 0.186 0.307 0.428 0.517 0.727 0.63s0.63 0.17 0.994 0.17c0.275 0 0.525-0.020 0.752-0.061 0.234-0.040 0.412-0.077 0.533-0.109l0.739 3.43c-0.234 0.081-0.57 0.17-1.006 0.267-0.428 0.097-0.954 0.153-1.576 0.17-1.099 0.032-2.089-0.133-2.97-0.497-0.881-0.372-1.58-0.945-2.097-1.721-0.509-0.776-0.759-1.745-0.751-2.909v-18.206zM64.413 30.448c-0.598 0-1.152-0.048-1.661-0.145-0.501-0.089-0.901-0.194-1.2-0.315l1.018-3.418c0.639 0.186 1.208 0.275 1.709 0.267s0.941-0.166 1.321-0.473c0.388-0.299 0.715-0.8 0.982-1.503l0.376-1.006-6.751-19.006h4.655l4.291 14.061h0.194l4.303-14.061h4.667l-7.454 20.873c-0.348 0.986-0.808 1.83-1.382 2.533-0.574 0.711-1.277 1.252-2.109 1.624-0.824 0.38-1.81 0.57-2.957 0.57z"></path>
<path fill="#050505" style="fill: var(--color2, #050505)" d="M89.284 4.848v3.394h-10.703v-3.394h10.703zM81.224 0.388h4.388v17.479c0 0.59 0.089 1.042 0.267 1.358 0.186 0.307 0.428 0.517 0.727 0.63s0.63 0.17 0.994 0.17c0.275 0 0.525-0.020 0.752-0.061 0.234-0.040 0.412-0.077 0.533-0.109l0.739 3.43c-0.234 0.081-0.57 0.17-1.006 0.267-0.428 0.097-0.954 0.153-1.576 0.17-1.099 0.032-2.089-0.133-2.97-0.497-0.881-0.372-1.58-0.945-2.097-1.721-0.509-0.776-0.759-1.745-0.751-2.909v-18.206zM91.588 23.467v-18.618h4.255v3.103h0.194c0.339-1.075 0.921-1.903 1.745-2.485 0.832-0.59 1.782-0.885 2.849-0.885 0.242 0 0.513 0.012 0.812 0.036 0.307 0.016 0.562 0.044 0.764 0.085v4.036c-0.186-0.065-0.481-0.121-0.885-0.17-0.396-0.057-0.78-0.085-1.151-0.085-0.8 0-1.519 0.174-2.158 0.521-0.63 0.339-1.127 0.812-1.491 1.418s-0.546 1.305-0.546 2.097v10.945h-4.388zM111.232 23.83c-1.867 0-3.479-0.388-4.836-1.164-1.35-0.784-2.388-1.891-3.115-3.321-0.727-1.438-1.091-3.131-1.091-5.079 0-1.915 0.364-3.596 1.091-5.042 0.735-1.455 1.761-2.586 3.079-3.394 1.317-0.816 2.865-1.224 4.642-1.224 1.148 0 2.23 0.186 3.248 0.558 1.026 0.364 1.931 0.929 2.715 1.697 0.792 0.768 1.414 1.745 1.867 2.933 0.453 1.18 0.679 2.586 0.679 4.218v1.345h-15.261v-2.958h11.055c-0.008-0.84-0.19-1.588-0.545-2.242-0.356-0.663-0.853-1.184-1.491-1.564-0.63-0.38-1.366-0.57-2.206-0.57-0.897 0-1.685 0.218-2.364 0.655-0.679 0.428-1.208 0.994-1.588 1.697-0.372 0.695-0.561 1.459-0.57 2.291v2.582c0 1.083 0.198 2.012 0.594 2.788 0.396 0.768 0.95 1.358 1.661 1.77 0.711 0.404 1.543 0.606 2.497 0.606 0.638 0 1.216-0.089 1.733-0.267 0.517-0.186 0.966-0.457 1.345-0.812s0.667-0.796 0.861-1.321l4.097 0.461c-0.259 1.083-0.752 2.028-1.479 2.836-0.719 0.8-1.64 1.422-2.764 1.867-1.123 0.436-2.408 0.655-3.855 0.655zM127.215 23.842c-1.18 0-2.242-0.21-3.188-0.63-0.937-0.428-1.681-1.059-2.23-1.891-0.541-0.832-0.812-1.859-0.812-3.079 0-1.051 0.194-1.919 0.582-2.606s0.917-1.236 1.588-1.649c0.671-0.412 1.426-0.723 2.267-0.933 0.849-0.218 1.725-0.376 2.63-0.473 1.091-0.113 1.976-0.214 2.655-0.303 0.679-0.097 1.172-0.242 1.479-0.436 0.315-0.202 0.473-0.513 0.473-0.933v-0.073c0-0.913-0.271-1.62-0.812-2.121s-1.321-0.752-2.339-0.752c-1.075 0-1.927 0.234-2.558 0.703-0.622 0.469-1.042 1.022-1.261 1.661l-4.097-0.582c0.323-1.131 0.857-2.077 1.6-2.836 0.743-0.768 1.652-1.341 2.727-1.721 1.075-0.388 2.263-0.582 3.564-0.582 0.897 0 1.79 0.105 2.679 0.315s1.701 0.558 2.436 1.042c0.735 0.477 1.325 1.127 1.77 1.952 0.452 0.824 0.679 1.855 0.679 3.091v12.461h-4.218v-2.558h-0.145c-0.267 0.517-0.642 1.002-1.127 1.455-0.477 0.444-1.079 0.804-1.806 1.079-0.719 0.267-1.564 0.4-2.533 0.4zM128.355 20.618c0.881 0 1.645-0.174 2.291-0.521 0.646-0.356 1.143-0.824 1.491-1.406 0.355-0.582 0.533-1.216 0.533-1.903v-2.194c-0.137 0.113-0.372 0.218-0.703 0.315-0.323 0.097-0.687 0.182-1.091 0.255s-0.804 0.137-1.2 0.194c-0.396 0.057-0.739 0.105-1.030 0.145-0.654 0.089-1.24 0.234-1.758 0.436s-0.925 0.485-1.224 0.849c-0.299 0.356-0.449 0.816-0.449 1.382 0 0.808 0.295 1.418 0.885 1.83s1.341 0.618 2.255 0.618zM149.389 4.848v3.394h-10.703v-3.394h10.703zM141.329 0.388h4.388v17.479c0 0.59 0.089 1.042 0.267 1.358 0.186 0.307 0.428 0.517 0.727 0.63s0.63 0.17 0.994 0.17c0.275 0 0.525-0.020 0.751-0.061 0.234-0.040 0.412-0.077 0.533-0.109l0.739 3.43c-0.234 0.081-0.57 0.17-1.006 0.267-0.428 0.097-0.953 0.153-1.576 0.17-1.099 0.032-2.089-0.133-2.97-0.497-0.881-0.372-1.58-0.945-2.097-1.721-0.509-0.776-0.76-1.745-0.752-2.909v-18.206zM166.142 9.77l-4 0.436c-0.113-0.404-0.311-0.784-0.594-1.139-0.275-0.356-0.646-0.642-1.115-0.861s-1.042-0.327-1.721-0.327c-0.913 0-1.681 0.198-2.303 0.594-0.614 0.396-0.917 0.909-0.909 1.539-0.008 0.541 0.19 0.982 0.594 1.321 0.412 0.339 1.091 0.618 2.036 0.836l3.176 0.679c1.762 0.38 3.071 0.982 3.927 1.806 0.865 0.824 1.301 1.903 1.309 3.236-0.008 1.172-0.351 2.206-1.030 3.103-0.671 0.889-1.604 1.584-2.8 2.085s-2.57 0.752-4.121 0.752c-2.279 0-4.113-0.477-5.503-1.43-1.39-0.962-2.218-2.299-2.485-4.012l4.279-0.412c0.194 0.84 0.606 1.475 1.236 1.903s1.45 0.642 2.461 0.642c1.042 0 1.879-0.214 2.509-0.642 0.638-0.428 0.958-0.958 0.958-1.588 0-0.533-0.206-0.974-0.618-1.321-0.404-0.347-1.034-0.614-1.891-0.8l-3.176-0.667c-1.786-0.372-3.107-0.998-3.964-1.879-0.857-0.889-1.281-2.012-1.273-3.37-0.008-1.147 0.303-2.141 0.933-2.982 0.638-0.848 1.523-1.503 2.655-1.964 1.139-0.469 2.452-0.703 3.939-0.703 2.182 0 3.899 0.465 5.151 1.394 1.261 0.929 2.041 2.186 2.339 3.77zM171.498 23.733c-0.735 0-1.366-0.259-1.891-0.776s-0.784-1.148-0.776-1.891c-0.008-0.727 0.25-1.349 0.776-1.867s1.156-0.776 1.891-0.776c0.711 0 1.329 0.259 1.855 0.776 0.533 0.517 0.804 1.139 0.812 1.867-0.008 0.493-0.137 0.941-0.388 1.346-0.243 0.404-0.566 0.727-0.97 0.97-0.396 0.234-0.832 0.352-1.309 0.352z"></path>
</symbol>
<symbol id="icon-logo-night-desk" viewBox="0 0 173 32">
<path fill="#9bb537" style="fill: var(--color1, #9bb537)" d="M11.735 5.989v3.369h-10.624v-3.369h10.624zM3.734 1.562h4.356v17.35c0 0.586 0.088 1.035 0.265 1.348 0.184 0.305 0.425 0.513 0.722 0.626s0.626 0.168 0.987 0.168c0.273 0 0.521-0.020 0.746-0.060 0.233-0.040 0.409-0.076 0.529-0.108l0.734 3.405c-0.233 0.080-0.566 0.168-0.999 0.265-0.425 0.096-0.947 0.152-1.564 0.168-1.091 0.032-2.074-0.132-2.948-0.493-0.874-0.369-1.568-0.939-2.082-1.709-0.505-0.77-0.754-1.733-0.746-2.888v-18.072zM19.341 24.844c-1.171 0-2.226-0.209-3.164-0.626-0.93-0.425-1.668-1.051-2.214-1.877-0.537-0.826-0.806-1.845-0.806-3.056 0-1.043 0.193-1.905 0.578-2.587s0.91-1.227 1.576-1.636c0.666-0.409 1.416-0.718 2.25-0.926 0.842-0.217 1.713-0.373 2.611-0.469 1.083-0.112 1.961-0.213 2.635-0.301 0.674-0.096 1.163-0.241 1.468-0.433 0.313-0.201 0.469-0.509 0.469-0.926v-0.072c0-0.906-0.269-1.608-0.806-2.106s-1.312-0.746-2.322-0.746c-1.067 0-1.913 0.233-2.539 0.698-0.618 0.465-1.035 1.015-1.251 1.648l-4.067-0.578c0.321-1.123 0.85-2.062 1.588-2.816 0.738-0.762 1.64-1.332 2.707-1.709 1.067-0.385 2.246-0.578 3.537-0.578 0.89 0 1.777 0.104 2.659 0.313s1.688 0.553 2.418 1.035c0.73 0.473 1.315 1.119 1.757 1.937 0.449 0.818 0.674 1.841 0.674 3.068v12.369h-4.187v-2.539h-0.144c-0.265 0.513-0.638 0.995-1.119 1.444-0.473 0.441-1.071 0.798-1.793 1.071-0.714 0.265-1.552 0.397-2.515 0.397zM20.472 21.643c0.874 0 1.632-0.173 2.274-0.517 0.642-0.353 1.135-0.818 1.48-1.396 0.353-0.578 0.529-1.207 0.529-1.889v-2.178c-0.136 0.112-0.369 0.217-0.698 0.313-0.321 0.096-0.682 0.18-1.083 0.253s-0.798 0.136-1.191 0.192c-0.393 0.056-0.734 0.104-1.023 0.144-0.65 0.088-1.231 0.233-1.745 0.433s-0.918 0.481-1.215 0.842c-0.297 0.353-0.445 0.81-0.445 1.372 0 0.802 0.293 1.408 0.878 1.817s1.331 0.614 2.238 0.614zM46.73 10.874l-3.971 0.433c-0.112-0.401-0.309-0.778-0.59-1.131-0.273-0.353-0.642-0.638-1.107-0.854s-1.035-0.325-1.709-0.325c-0.907 0-1.669 0.197-2.286 0.59-0.61 0.393-0.91 0.902-0.902 1.528-0.008 0.537 0.188 0.975 0.59 1.312 0.409 0.337 1.083 0.614 2.021 0.83l3.152 0.674c1.749 0.377 3.048 0.975 3.898 1.793 0.858 0.818 1.291 1.889 1.299 3.213-0.008 1.163-0.349 2.19-1.023 3.080-0.666 0.882-1.592 1.572-2.779 2.070s-2.551 0.746-4.091 0.746c-2.262 0-4.083-0.473-5.463-1.42-1.38-0.955-2.202-2.282-2.467-3.983l4.247-0.409c0.193 0.834 0.602 1.464 1.227 1.889s1.44 0.638 2.443 0.638c1.035 0 1.865-0.213 2.491-0.638 0.634-0.425 0.951-0.951 0.951-1.576 0-0.529-0.205-0.967-0.614-1.311-0.401-0.345-1.027-0.61-1.877-0.794l-3.152-0.662c-1.773-0.369-3.084-0.991-3.934-1.865-0.85-0.882-1.271-1.997-1.263-3.345-0.008-1.139 0.301-2.126 0.926-2.96 0.634-0.842 1.512-1.492 2.635-1.949 1.131-0.465 2.434-0.698 3.91-0.698 2.166 0 3.87 0.461 5.114 1.384 1.251 0.922 2.025 2.17 2.322 3.742zM58.592 5.989v3.369h-10.624v-3.369h10.624zM50.591 1.562h4.356v17.35c0 0.586 0.088 1.035 0.265 1.348 0.184 0.305 0.425 0.513 0.722 0.626s0.626 0.168 0.987 0.168c0.273 0 0.521-0.020 0.746-0.060 0.233-0.040 0.409-0.076 0.529-0.108l0.734 3.405c-0.232 0.080-0.565 0.168-0.999 0.265-0.425 0.096-0.946 0.152-1.564 0.168-1.091 0.032-2.073-0.132-2.948-0.493-0.874-0.369-1.568-0.939-2.081-1.709-0.505-0.77-0.754-1.733-0.746-2.888v-18.072zM63.587 31.401c-0.594 0-1.143-0.048-1.648-0.144-0.497-0.088-0.895-0.193-1.191-0.313l1.011-3.393c0.634 0.184 1.199 0.273 1.697 0.265s0.934-0.165 1.311-0.469c0.385-0.297 0.71-0.794 0.975-1.492l0.373-0.999-6.702-18.866h4.62l4.259 13.957h0.192l4.271-13.957h4.632l-7.4 20.719c-0.345 0.979-0.802 1.817-1.372 2.515-0.569 0.706-1.267 1.243-2.094 1.612-0.818 0.377-1.797 0.565-2.936 0.565z"></path>
<path fill="#fff" style="fill: var(--color3, #fff)" d="M88.275 5.989v3.369h-10.624v-3.369h10.624zM80.273 1.562h4.356v17.35c0 0.586 0.088 1.035 0.265 1.348 0.184 0.305 0.425 0.513 0.722 0.626s0.626 0.168 0.987 0.168c0.273 0 0.521-0.020 0.746-0.060 0.232-0.040 0.409-0.076 0.529-0.108l0.734 3.405c-0.232 0.080-0.565 0.168-0.999 0.265-0.425 0.096-0.946 0.152-1.564 0.168-1.091 0.032-2.073-0.132-2.948-0.493-0.874-0.369-1.568-0.939-2.082-1.709-0.505-0.77-0.754-1.733-0.746-2.888v-18.072zM90.562 24.471v-18.481h4.223v3.080h0.192c0.337-1.067 0.914-1.889 1.733-2.467 0.826-0.586 1.769-0.878 2.827-0.878 0.241 0 0.509 0.012 0.806 0.036 0.305 0.016 0.557 0.044 0.758 0.084v4.007c-0.184-0.064-0.477-0.12-0.878-0.168-0.393-0.056-0.774-0.084-1.143-0.084-0.794 0-1.508 0.172-2.142 0.517-0.626 0.337-1.119 0.806-1.48 1.408s-0.541 1.295-0.541 2.082v10.865h-4.356zM110.062 24.832c-1.853 0-3.453-0.385-4.801-1.155-1.339-0.778-2.37-1.877-3.092-3.297-0.722-1.428-1.083-3.108-1.083-5.041 0-1.901 0.361-3.57 1.083-5.005 0.73-1.444 1.749-2.567 3.056-3.369 1.307-0.81 2.843-1.215 4.608-1.215 1.139 0 2.214 0.184 3.225 0.553 1.019 0.361 1.917 0.922 2.695 1.684 0.786 0.762 1.404 1.733 1.853 2.912 0.449 1.171 0.674 2.567 0.674 4.187v1.336h-15.148v-2.936h10.973c-0.008-0.834-0.189-1.576-0.542-2.226-0.353-0.658-0.846-1.175-1.48-1.552-0.626-0.377-1.355-0.566-2.19-0.566-0.89 0-1.672 0.217-2.346 0.65-0.674 0.425-1.199 0.987-1.576 1.684-0.369 0.69-0.558 1.448-0.566 2.274v2.563c0 1.075 0.197 1.997 0.59 2.767 0.393 0.762 0.943 1.348 1.649 1.757 0.706 0.401 1.532 0.602 2.478 0.602 0.634 0 1.207-0.088 1.721-0.265 0.513-0.184 0.959-0.453 1.336-0.806s0.662-0.79 0.854-1.311l4.067 0.457c-0.257 1.075-0.746 2.013-1.468 2.815-0.714 0.794-1.628 1.412-2.743 1.853-1.115 0.433-2.39 0.65-3.826 0.65zM125.927 24.844c-1.171 0-2.226-0.209-3.164-0.626-0.931-0.425-1.669-1.051-2.214-1.877-0.537-0.826-0.806-1.845-0.806-3.056 0-1.043 0.192-1.905 0.578-2.587s0.91-1.227 1.576-1.636 1.416-0.718 2.25-0.926c0.842-0.217 1.713-0.373 2.611-0.469 1.083-0.112 1.961-0.213 2.635-0.301 0.674-0.096 1.163-0.241 1.468-0.433 0.313-0.201 0.469-0.509 0.469-0.926v-0.072c0-0.906-0.269-1.608-0.806-2.106s-1.311-0.746-2.322-0.746c-1.067 0-1.913 0.233-2.539 0.698-0.618 0.465-1.035 1.015-1.251 1.648l-4.067-0.578c0.321-1.123 0.85-2.062 1.588-2.816 0.738-0.762 1.64-1.332 2.707-1.709 1.067-0.385 2.246-0.578 3.538-0.578 0.89 0 1.777 0.104 2.659 0.313s1.688 0.553 2.418 1.035c0.73 0.473 1.316 1.119 1.757 1.937 0.449 0.818 0.674 1.841 0.674 3.068v12.369h-4.187v-2.539h-0.144c-0.265 0.513-0.638 0.995-1.119 1.444-0.473 0.441-1.071 0.798-1.793 1.071-0.714 0.265-1.552 0.397-2.515 0.397zM127.058 21.643c0.874 0 1.632-0.173 2.274-0.517 0.642-0.353 1.135-0.818 1.48-1.396 0.353-0.578 0.53-1.207 0.53-1.889v-2.178c-0.136 0.112-0.369 0.217-0.698 0.313-0.321 0.096-0.682 0.18-1.083 0.253s-0.798 0.136-1.191 0.192-0.734 0.104-1.023 0.144c-0.65 0.088-1.231 0.233-1.745 0.433s-0.918 0.481-1.215 0.842c-0.297 0.353-0.445 0.81-0.445 1.372 0 0.802 0.293 1.408 0.878 1.817s1.332 0.614 2.238 0.614zM147.938 5.989v3.369h-10.624v-3.369h10.624zM139.937 1.562h4.356v17.35c0 0.586 0.088 1.035 0.265 1.348 0.184 0.305 0.425 0.513 0.722 0.626s0.626 0.168 0.987 0.168c0.273 0 0.521-0.020 0.746-0.060 0.233-0.040 0.409-0.076 0.53-0.108l0.734 3.405c-0.233 0.080-0.565 0.168-0.999 0.265-0.425 0.096-0.947 0.152-1.564 0.168-1.091 0.032-2.074-0.132-2.948-0.493-0.874-0.369-1.568-0.939-2.082-1.709-0.505-0.77-0.754-1.733-0.746-2.888v-18.072zM164.568 10.874l-3.97 0.433c-0.112-0.401-0.309-0.778-0.59-1.131-0.273-0.353-0.642-0.638-1.107-0.854s-1.035-0.325-1.709-0.325c-0.906 0-1.668 0.197-2.286 0.59-0.609 0.393-0.91 0.902-0.902 1.528-0.008 0.537 0.189 0.975 0.59 1.312 0.409 0.337 1.083 0.614 2.021 0.83l3.152 0.674c1.749 0.377 3.048 0.975 3.898 1.793 0.858 0.818 1.291 1.889 1.3 3.213-0.008 1.163-0.349 2.19-1.023 3.080-0.666 0.882-1.592 1.572-2.779 2.070s-2.551 0.746-4.091 0.746c-2.262 0-4.083-0.473-5.463-1.42-1.38-0.955-2.202-2.282-2.467-3.983l4.247-0.409c0.193 0.834 0.602 1.464 1.227 1.889s1.44 0.638 2.443 0.638c1.035 0 1.865-0.213 2.491-0.638 0.634-0.425 0.95-0.951 0.95-1.576 0-0.529-0.204-0.967-0.614-1.311-0.401-0.345-1.027-0.61-1.877-0.794l-3.152-0.662c-1.773-0.369-3.084-0.991-3.935-1.865-0.85-0.882-1.272-1.997-1.263-3.345-0.008-1.139 0.301-2.126 0.927-2.96 0.634-0.842 1.512-1.492 2.635-1.949 1.131-0.465 2.435-0.698 3.911-0.698 2.166 0 3.87 0.461 5.114 1.384 1.251 0.922 2.025 2.17 2.322 3.742zM169.884 24.735c-0.73 0-1.355-0.257-1.877-0.77s-0.778-1.139-0.77-1.877c-0.008-0.722 0.249-1.34 0.77-1.853s1.147-0.77 1.877-0.77c0.706 0 1.32 0.257 1.841 0.77 0.53 0.513 0.798 1.131 0.806 1.853-0.008 0.489-0.136 0.934-0.385 1.336-0.241 0.401-0.561 0.722-0.962 0.963-0.393 0.232-0.826 0.349-1.3 0.349z"></path>
</symbol>
<symbol id="icon-logo-night-mob" viewBox="0 0 175 32">
<path fill="#9bb537" style="fill: var(--color1, #9bb537)" d="M12.178 4.848v3.394h-10.703v-3.394h10.703zM4.117 0.388h4.388v17.479c0 0.59 0.089 1.042 0.267 1.358 0.186 0.307 0.428 0.517 0.727 0.63s0.63 0.17 0.994 0.17c0.275 0 0.525-0.020 0.752-0.061 0.234-0.040 0.412-0.077 0.533-0.109l0.739 3.43c-0.234 0.081-0.57 0.17-1.006 0.267-0.428 0.097-0.954 0.153-1.576 0.17-1.099 0.032-2.089-0.133-2.97-0.497-0.881-0.372-1.58-0.945-2.097-1.721-0.509-0.776-0.76-1.745-0.752-2.909v-18.206zM19.839 23.842c-1.18 0-2.242-0.21-3.188-0.63-0.937-0.428-1.681-1.059-2.23-1.891-0.541-0.832-0.812-1.859-0.812-3.079 0-1.051 0.194-1.919 0.582-2.606s0.917-1.236 1.588-1.649c0.671-0.412 1.426-0.723 2.267-0.933 0.848-0.218 1.725-0.376 2.63-0.473 1.091-0.113 1.976-0.214 2.655-0.303 0.679-0.097 1.172-0.242 1.479-0.436 0.315-0.202 0.473-0.513 0.473-0.933v-0.073c0-0.913-0.271-1.62-0.812-2.121s-1.321-0.752-2.339-0.752c-1.075 0-1.927 0.234-2.558 0.703-0.622 0.469-1.042 1.022-1.261 1.661l-4.097-0.582c0.323-1.131 0.857-2.077 1.6-2.836 0.743-0.768 1.653-1.341 2.727-1.721 1.075-0.388 2.263-0.582 3.564-0.582 0.897 0 1.79 0.105 2.679 0.315s1.701 0.558 2.436 1.042c0.735 0.477 1.325 1.127 1.77 1.952 0.452 0.824 0.679 1.855 0.679 3.091v12.461h-4.218v-2.558h-0.145c-0.267 0.517-0.642 1.002-1.127 1.455-0.477 0.444-1.079 0.804-1.806 1.079-0.719 0.267-1.564 0.4-2.533 0.4zM20.979 20.618c0.881 0 1.645-0.174 2.291-0.521 0.646-0.356 1.143-0.824 1.491-1.406 0.355-0.582 0.533-1.216 0.533-1.903v-2.194c-0.137 0.113-0.372 0.218-0.703 0.315-0.323 0.097-0.687 0.182-1.091 0.255s-0.804 0.137-1.2 0.194c-0.396 0.057-0.739 0.105-1.030 0.145-0.655 0.089-1.24 0.234-1.758 0.436s-0.925 0.485-1.224 0.849c-0.299 0.356-0.448 0.816-0.448 1.382 0 0.808 0.295 1.418 0.885 1.83s1.341 0.618 2.255 0.618zM47.432 9.77l-4 0.436c-0.113-0.404-0.311-0.784-0.594-1.139-0.275-0.356-0.646-0.642-1.115-0.861s-1.043-0.327-1.721-0.327c-0.913 0-1.681 0.198-2.303 0.594-0.614 0.396-0.917 0.909-0.909 1.539-0.008 0.541 0.19 0.982 0.594 1.321 0.412 0.339 1.091 0.618 2.036 0.836l3.176 0.679c1.761 0.38 3.071 0.982 3.927 1.806 0.865 0.824 1.301 1.903 1.309 3.236-0.008 1.172-0.352 2.206-1.030 3.103-0.671 0.889-1.604 1.584-2.8 2.085s-2.57 0.752-4.121 0.752c-2.279 0-4.113-0.477-5.503-1.43-1.39-0.962-2.218-2.299-2.485-4.012l4.279-0.412c0.194 0.84 0.606 1.475 1.236 1.903s1.451 0.642 2.461 0.642c1.042 0 1.879-0.214 2.509-0.642 0.638-0.428 0.958-0.958 0.958-1.588 0-0.533-0.206-0.974-0.618-1.321-0.404-0.347-1.034-0.614-1.891-0.8l-3.176-0.667c-1.786-0.372-3.107-0.998-3.964-1.879-0.857-0.889-1.281-2.012-1.273-3.37-0.008-1.147 0.303-2.141 0.933-2.982 0.639-0.848 1.523-1.503 2.655-1.964 1.139-0.469 2.452-0.703 3.939-0.703 2.182 0 3.899 0.465 5.152 1.394 1.261 0.929 2.041 2.186 2.339 3.77zM59.382 4.848v3.394h-10.703v-3.394h10.703zM51.321 0.388h4.388v17.479c0 0.59 0.089 1.042 0.267 1.358 0.186 0.307 0.428 0.517 0.727 0.63s0.63 0.17 0.994 0.17c0.275 0 0.525-0.020 0.752-0.061 0.234-0.040 0.412-0.077 0.533-0.109l0.739 3.43c-0.234 0.081-0.57 0.17-1.006 0.267-0.428 0.097-0.954 0.153-1.576 0.17-1.099 0.032-2.089-0.133-2.97-0.497-0.881-0.372-1.58-0.945-2.097-1.721-0.509-0.776-0.759-1.745-0.751-2.909v-18.206zM64.413 30.448c-0.598 0-1.152-0.048-1.661-0.145-0.501-0.089-0.901-0.194-1.2-0.315l1.018-3.418c0.639 0.186 1.208 0.275 1.709 0.267s0.941-0.166 1.321-0.473c0.388-0.299 0.715-0.8 0.982-1.503l0.376-1.006-6.751-19.006h4.655l4.291 14.061h0.194l4.303-14.061h4.667l-7.454 20.873c-0.348 0.986-0.808 1.83-1.382 2.533-0.574 0.711-1.277 1.252-2.109 1.624-0.824 0.38-1.81 0.57-2.957 0.57z"></path>
<path fill="#fff" style="fill: var(--color3, #fff)" d="M89.284 4.848v3.394h-10.703v-3.394h10.703zM81.224 0.388h4.388v17.479c0 0.59 0.089 1.042 0.267 1.358 0.186 0.307 0.428 0.517 0.727 0.63s0.63 0.17 0.994 0.17c0.275 0 0.525-0.020 0.752-0.061 0.234-0.040 0.412-0.077 0.533-0.109l0.739 3.43c-0.234 0.081-0.57 0.17-1.006 0.267-0.428 0.097-0.954 0.153-1.576 0.17-1.099 0.032-2.089-0.133-2.97-0.497-0.881-0.372-1.58-0.945-2.097-1.721-0.509-0.776-0.759-1.745-0.751-2.909v-18.206zM91.588 23.467v-18.618h4.255v3.103h0.194c0.339-1.075 0.921-1.903 1.745-2.485 0.832-0.59 1.782-0.885 2.849-0.885 0.242 0 0.513 0.012 0.812 0.036 0.307 0.016 0.562 0.044 0.764 0.085v4.036c-0.186-0.065-0.481-0.121-0.885-0.17-0.396-0.057-0.78-0.085-1.151-0.085-0.8 0-1.519 0.174-2.158 0.521-0.63 0.339-1.127 0.812-1.491 1.418s-0.546 1.305-0.546 2.097v10.945h-4.388zM111.232 23.83c-1.867 0-3.479-0.388-4.836-1.164-1.35-0.784-2.388-1.891-3.115-3.321-0.727-1.438-1.091-3.131-1.091-5.079 0-1.915 0.364-3.596 1.091-5.042 0.735-1.455 1.761-2.586 3.079-3.394 1.317-0.816 2.865-1.224 4.642-1.224 1.148 0 2.23 0.186 3.248 0.558 1.026 0.364 1.931 0.929 2.715 1.697 0.792 0.768 1.414 1.745 1.867 2.933 0.453 1.18 0.679 2.586 0.679 4.218v1.345h-15.261v-2.958h11.055c-0.008-0.84-0.19-1.588-0.545-2.242-0.356-0.663-0.853-1.184-1.491-1.564-0.63-0.38-1.366-0.57-2.206-0.57-0.897 0-1.685 0.218-2.364 0.655-0.679 0.428-1.208 0.994-1.588 1.697-0.372 0.695-0.561 1.459-0.57 2.291v2.582c0 1.083 0.198 2.012 0.594 2.788 0.396 0.768 0.95 1.358 1.661 1.77 0.711 0.404 1.543 0.606 2.497 0.606 0.638 0 1.216-0.089 1.733-0.267 0.517-0.186 0.966-0.457 1.345-0.812s0.667-0.796 0.861-1.321l4.097 0.461c-0.259 1.083-0.752 2.028-1.479 2.836-0.719 0.8-1.64 1.422-2.764 1.867-1.123 0.436-2.408 0.655-3.855 0.655zM127.215 23.842c-1.18 0-2.242-0.21-3.188-0.63-0.937-0.428-1.681-1.059-2.23-1.891-0.541-0.832-0.812-1.859-0.812-3.079 0-1.051 0.194-1.919 0.582-2.606s0.917-1.236 1.588-1.649c0.671-0.412 1.426-0.723 2.267-0.933 0.849-0.218 1.725-0.376 2.63-0.473 1.091-0.113 1.976-0.214 2.655-0.303 0.679-0.097 1.172-0.242 1.479-0.436 0.315-0.202 0.473-0.513 0.473-0.933v-0.073c0-0.913-0.271-1.62-0.812-2.121s-1.321-0.752-2.339-0.752c-1.075 0-1.927 0.234-2.558 0.703-0.622 0.469-1.042 1.022-1.261 1.661l-4.097-0.582c0.323-1.131 0.857-2.077 1.6-2.836 0.743-0.768 1.652-1.341 2.727-1.721 1.075-0.388 2.263-0.582 3.564-0.582 0.897 0 1.79 0.105 2.679 0.315s1.701 0.558 2.436 1.042c0.735 0.477 1.325 1.127 1.77 1.952 0.452 0.824 0.679 1.855 0.679 3.091v12.461h-4.218v-2.558h-0.145c-0.267 0.517-0.642 1.002-1.127 1.455-0.477 0.444-1.079 0.804-1.806 1.079-0.719 0.267-1.564 0.4-2.533 0.4zM128.355 20.618c0.881 0 1.645-0.174 2.291-0.521 0.646-0.356 1.143-0.824 1.491-1.406 0.355-0.582 0.533-1.216 0.533-1.903v-2.194c-0.137 0.113-0.372 0.218-0.703 0.315-0.323 0.097-0.687 0.182-1.091 0.255s-0.804 0.137-1.2 0.194c-0.396 0.057-0.739 0.105-1.030 0.145-0.654 0.089-1.24 0.234-1.758 0.436s-0.925 0.485-1.224 0.849c-0.299 0.356-0.449 0.816-0.449 1.382 0 0.808 0.295 1.418 0.885 1.83s1.341 0.618 2.255 0.618zM149.389 4.848v3.394h-10.703v-3.394h10.703zM141.329 0.388h4.388v17.479c0 0.59 0.089 1.042 0.267 1.358 0.186 0.307 0.428 0.517 0.727 0.63s0.63 0.17 0.994 0.17c0.275 0 0.525-0.020 0.751-0.061 0.234-0.040 0.412-0.077 0.533-0.109l0.739 3.43c-0.234 0.081-0.57 0.17-1.006 0.267-0.428 0.097-0.953 0.153-1.576 0.17-1.099 0.032-2.089-0.133-2.97-0.497-0.881-0.372-1.58-0.945-2.097-1.721-0.509-0.776-0.76-1.745-0.752-2.909v-18.206zM166.142 9.77l-4 0.436c-0.113-0.404-0.311-0.784-0.594-1.139-0.275-0.356-0.646-0.642-1.115-0.861s-1.042-0.327-1.721-0.327c-0.913 0-1.681 0.198-2.303 0.594-0.614 0.396-0.917 0.909-0.909 1.539-0.008 0.541 0.19 0.982 0.594 1.321 0.412 0.339 1.091 0.618 2.036 0.836l3.176 0.679c1.762 0.38 3.071 0.982 3.927 1.806 0.865 0.824 1.301 1.903 1.309 3.236-0.008 1.172-0.351 2.206-1.030 3.103-0.671 0.889-1.604 1.584-2.8 2.085s-2.57 0.752-4.121 0.752c-2.279 0-4.113-0.477-5.503-1.43-1.39-0.962-2.218-2.299-2.485-4.012l4.279-0.412c0.194 0.84 0.606 1.475 1.236 1.903s1.45 0.642 2.461 0.642c1.042 0 1.879-0.214 2.509-0.642 0.638-0.428 0.958-0.958 0.958-1.588 0-0.533-0.206-0.974-0.618-1.321-0.404-0.347-1.034-0.614-1.891-0.8l-3.176-0.667c-1.786-0.372-3.107-0.998-3.964-1.879-0.857-0.889-1.281-2.012-1.273-3.37-0.008-1.147 0.303-2.141 0.933-2.982 0.638-0.848 1.523-1.503 2.655-1.964 1.139-0.469 2.452-0.703 3.939-0.703 2.182 0 3.899 0.465 5.151 1.394 1.261 0.929 2.041 2.186 2.339 3.77zM171.498 23.733c-0.735 0-1.366-0.259-1.891-0.776s-0.784-1.148-0.776-1.891c-0.008-0.727 0.25-1.349 0.776-1.867s1.156-0.776 1.891-0.776c0.711 0 1.329 0.259 1.855 0.776 0.533 0.517 0.804 1.139 0.812 1.867-0.008 0.493-0.137 0.941-0.388 1.346-0.243 0.404-0.566 0.727-0.97 0.97-0.396 0.234-0.832 0.352-1.309 0.352z"></path>
</symbol>

<symbol id="icon-switch-off" viewBox="0 0 50 32">
<path fill="#cecdcd" style="fill: var(--color4, #cecdcd)" d="M13.176 6.902h16.314c3.465 0 6.274 2.809 6.274 6.274s-2.809 6.275-6.274 6.275h-16.314c-3.465 0-6.274-2.809-6.274-6.274s2.809-6.274 6.274-6.274z"></path>
<path fill="#f8f8f8" style="fill: var(--color5, #f8f8f8)" d="M19.074 13.177c0 3.257-2.641 5.898-5.898 5.898s-5.898-2.641-5.898-5.898c0-3.257 2.641-5.898 5.898-5.898s5.898 2.641 5.898 5.898z"></path>
</symbol>
<symbol id="icon-switch-on" viewBox="0 0 48 32">
<path fill="#9bb537" style="fill: var(--color1, #9bb537)" d="M11.294 6.902h16.314c3.465 0 6.275 2.809 6.275 6.274s-2.809 6.275-6.274 6.275h-16.314c-3.465 0-6.274-2.809-6.274-6.274s2.809-6.274 6.274-6.274z"></path>
<path fill="#f3f3f3" style="fill: var(--color7, #f3f3f3)" d="M33.506 13.176c0 3.257-2.641 5.898-5.898 5.898s-5.898-2.641-5.898-5.898c0-3.257 2.641-5.898 5.898-5.898s5.898 2.641 5.898 5.898z"></path>
</symbol>

<symbol id="icon-search" viewBox="0 0 32 32">
<path d="M28.947 27.054l-4.947-4.907c1.92-2.394 2.85-5.433 2.598-8.492s-1.666-5.905-3.951-7.953c-2.285-2.048-5.269-3.143-8.337-3.059s-5.987 1.34-8.157 3.51c-2.17 2.17-3.426 5.089-3.51 8.157s1.011 6.051 3.059 8.337c2.048 2.285 4.894 3.7 7.953 3.951s6.097-0.678 8.492-2.598l4.907 4.907c0.124 0.125 0.271 0.224 0.434 0.292s0.337 0.102 0.513 0.102 0.35-0.035 0.513-0.102c0.163-0.068 0.31-0.167 0.434-0.292 0.24-0.249 0.375-0.581 0.375-0.927s-0.134-0.678-0.375-0.927zM14.667 24.001c-1.846 0-3.65-0.547-5.185-1.573s-2.731-2.483-3.438-4.189c-0.706-1.705-0.891-3.582-0.531-5.393s1.249-3.474 2.554-4.779c1.305-1.305 2.968-2.194 4.779-2.554s3.687-0.175 5.393 0.531c1.705 0.706 3.163 1.903 4.189 3.438s1.573 3.339 1.573 5.185c0 2.475-0.983 4.849-2.734 6.6s-4.124 2.734-6.6 2.734z"></path>
</symbol>
<symbol id="icon-heart" viewBox="0 0 32 32">
<path stroke-linejoin="round" stroke-linecap="round" stroke-miterlimit="4" stroke-width="2.9091" d="M15.991 6.848c-2.666-3.117-7.111-3.955-10.451-1.101s-3.81 7.625-1.187 11c2.181 2.806 8.781 8.725 10.944 10.641 0.242 0.214 0.363 0.321 0.504 0.364 0.123 0.037 0.258 0.037 0.381 0 0.141-0.042 0.262-0.149 0.504-0.364 2.163-1.916 8.763-7.834 10.944-10.641 2.623-3.375 2.21-8.177-1.187-11.001s-7.786-2.015-10.451 1.101z"></path>
</symbol>


<symbol id="icon-close" viewBox="0 0 32 32">
<path stroke-linejoin="round" stroke-linecap="round" stroke-miterlimit="4" stroke-width="2.6667" d="M24 8l-16 16"></path>
<path stroke-linejoin="round" stroke-linecap="round" stroke-miterlimit="4" stroke-width="2.6667" d="M8 8l16 16"></path>
</symbol>
<symbol id="icon-burger" viewBox="0 0 31 32">
<path stroke-linejoin="round" stroke-linecap="round" stroke-miterlimit="4" stroke-width="1.9394" d="M27.151 13.414h-23.273"></path>
<path stroke-linejoin="round" stroke-linecap="round" stroke-miterlimit="4" stroke-width="1.9394" d="M27.151 8.242h-23.273"></path>
<path stroke-linejoin="round" stroke-linecap="round" stroke-miterlimit="4" stroke-width="1.9394" d="M27.151 18.586h-23.273"></path>
<path stroke-linejoin="round" stroke-linecap="round" stroke-miterlimit="4" stroke-width="1.9394" d="M27.151 23.758h-23.273"></path>
</symbol>
<symbol id="icon-star" viewBox="0 0 34 32">
<path d="M14.89 2.282c0.738-2.267 3.946-2.267 4.682 0l2.080 6.4c0.33 0.997 1.253 1.703 2.341 1.703h6.732c2.385 0 3.375 3.052 1.447 4.453l-5.447 3.956c-0.618 0.453-1.014 1.176-1.014 1.991 0 0.272 0.044 0.534 0.126 0.778l-0.005-0.017 2.080 6.402c0.738 2.267-1.858 4.155-3.788 2.752l-5.445-3.956c-0.401-0.294-0.903-0.471-1.447-0.471s-1.047 0.176-1.454 0.475l0.007-0.005-5.445 3.956c-1.93 1.403-4.524-0.485-3.788-2.752l2.080-6.4c0.077-0.228 0.121-0.49 0.121-0.763 0-0.816-0.397-1.539-1.008-1.987l-0.007-0.005-5.447-3.956c-1.927-1.403-0.935-4.455 1.447-4.455h6.732c1.086-0.001 2.007-0.705 2.333-1.681l0.005-0.017 2.082-6.4z"></path>
</symbol>

<symbol id="icon-order" viewBox="0 0 32 32">
<path  d="M12 29.333c0.736 0 1.333-0.597 1.333-1.333s-0.597-1.333-1.333-1.333c-0.736 0-1.333 0.597-1.333 1.333s0.597 1.333 1.333 1.333z"></path>
<path  d="M26.667 29.333c0.736 0 1.333-0.597 1.333-1.333s-0.597-1.333-1.333-1.333c-0.736 0-1.333 0.597-1.333 1.333s0.597 1.333 1.333 1.333z"></path>
<path fill="none"  stroke-linejoin="round" stroke-linecap="round" stroke-miterlimit="4" stroke-width="2.4" d="M1.333 1.333h5.333l3.573 17.853c0.122 0.614 0.456 1.165 0.943 1.558s1.098 0.601 1.723 0.589h12.96c0.626 0.012 1.236-0.197 1.723-0.589s0.821-0.944 0.943-1.558l2.133-11.187h-22.667"></path>
</symbol>

</defs>
</svg>
